<svg xmlns="http://www.w3.org/2000/svg" xmlns:xlink="http://www.w3.org/1999/xlink" width="48" height="48" viewBox="0 0 48 48">
  <defs>
    <clipPath id="clip-_200">
      <rect width="48" height="48"/>
    </clipPath>
  </defs>
  <g id="_200" data-name="200" clip-path="url(#clip-_200)">
    <path id="Subtraction_82" data-name="Subtraction 82" d="M-189.092,14h0l.826-5.447H-191L-189.1,4h3.1l-1.184,2.361H-185Z" transform="translate(204 28)" fill="#ffc107"/>
    <path id="Path_485" data-name="Path 485" d="M-168.51,33.885a1.01,1.01,0,0,1-.383-1.325l3.8-7.56h2.1l-4.256,8.48a.918.918,0,0,1-.817.52A.891.891,0,0,1-168.51,33.885Zm-8,0a1.01,1.01,0,0,1-.383-1.325l3.8-7.56h2.1l-4.256,8.48a.917.917,0,0,1-.817.52A.891.891,0,0,1-176.51,33.885Z" transform="translate(198 7)" fill="#03a9f4"/>
    <path id="Subtraction_92" data-name="Subtraction 92" d="M-930-258h-22.1a7.959,7.959,0,0,1-5.587-2.379A7.95,7.95,0,0,1-960-266a8.074,8.074,0,0,1,.063-1,8,8,0,0,1,1.257-3.4,8.239,8.239,0,0,1,.588-.783c.163-.19.33-.368.5-.531a7.95,7.95,0,0,1,4.236-2.174,11.883,11.883,0,0,1,2.875-4.6A11.915,11.915,0,0,1-942-282a11.915,11.915,0,0,1,8.485,3.514A11.918,11.918,0,0,1-930-270a6.008,6.008,0,0,1,6,6,6.007,6.007,0,0,1-6,6Zm-22-14a5.973,5.973,0,0,0-1.882.3c-.08.025-.17.059-.281.1l-.012,0-.012.005-.013,0A5.975,5.975,0,0,0-958-266a6.026,6.026,0,0,0,5.9,6h22.109a3.945,3.945,0,0,0,.7-.064A3.993,3.993,0,0,0-926-264a4,4,0,0,0-4-4c-.068,0-.112,0-.15,0a3.968,3.968,0,0,0-2.245.793,10.021,10.021,0,0,0,.4-2.8,10.011,10.011,0,0,0-10-10,10,10,0,0,0-9.183,6.042,7.973,7.973,0,0,1,5.1,2.582A7.975,7.975,0,0,1-944-266h-2a5.963,5.963,0,0,0-1.76-4.241A5.956,5.956,0,0,0-952-272Z" transform="translate(966 288)"/>
  </g>
</svg>
