<svg xmlns="http://www.w3.org/2000/svg" xmlns:xlink="http://www.w3.org/1999/xlink" width="48" height="48" viewBox="0 0 48 48">
  <defs>
    <clipPath id="clip-_314n">
      <rect width="48" height="48"/>
    </clipPath>
  </defs>
  <g id="_314n" data-name="314n" clip-path="url(#clip-_314n)">
    <path id="Path_447" data-name="Path 447" d="M-354.481-458.118a1.031,1.031,0,0,1-.4-1.37l.918-1.789a.964.964,0,0,1,1.324-.42,1.034,1.034,0,0,1,.4,1.371l-.919,1.789a.974.974,0,0,1-.865.538A.95.95,0,0,1-354.481-458.118Zm-8.027,0a1.011,1.011,0,0,1-.383-1.326l3.8-7.56H-357l-4.257,8.48a.914.914,0,0,1-.816.521A.891.891,0,0,1-362.508-458.114Zm-7.972,0a1.032,1.032,0,0,1-.4-1.37l.919-1.789a.962.962,0,0,1,1.322-.42,1.032,1.032,0,0,1,.406,1.371l-.919,1.789a.976.976,0,0,1-.865.538A.948.948,0,0,1-370.48-458.118Zm-8.028,0a1.011,1.011,0,0,1-.383-1.326l3.8-7.56h2.1l-4.257,8.48a.916.916,0,0,1-.817.521A.894.894,0,0,1-378.509-458.114ZM-352-463.3a1.03,1.03,0,0,1-.405-1.37l1.194-2.327H-349l-1.683,3.278a.974.974,0,0,1-.865.537A.949.949,0,0,1-352-463.3Zm-16,0a1.031,1.031,0,0,1-.4-1.37l1.193-2.327H-365l-1.682,3.278a.976.976,0,0,1-.865.537A.95.95,0,0,1-368-463.3Zm4-5.7h-12a8.006,8.006,0,0,1-1.673-.176,8,8,0,0,1-6.319-7.448Q-384-476.81-384-477h0a8,8,0,0,1,8-8c.227,0,.452.01.673.028q.073-.208.153-.413l0-.005.018-.045,0-.008.015-.038.007-.018.013-.031.01-.025.01-.024.013-.032.008-.018.017-.04,0-.008a11.954,11.954,0,0,1,1.878-3.056A11.975,11.975,0,0,1-365-492.959a11.656,11.656,0,0,1,2.358-6.858A11.848,11.848,0,0,1-356.663-504a11.811,11.811,0,0,0-.5,3.414,11.766,11.766,0,0,0,11.751,11.752,11.753,11.753,0,0,0,3.415-.5,11.841,11.841,0,0,1-4.184,5.979A11.69,11.69,0,0,1-352-481.064V-481h2a6,6,0,0,1,6,6,6,6,0,0,1-4.394,5.783A5.987,5.987,0,0,1-350-469Zm11.831-14.036a9.838,9.838,0,0,0,3.711-1.063A10.07,10.07,0,0,0-345-487.033c-.351.028-.7.04-1.029.04a12.993,12.993,0,0,1-12.978-12.979c0-.345.013-.69.04-1.029a10.1,10.1,0,0,0-2.934,3.46,9.879,9.879,0,0,0-1.1,4.558.218.218,0,0,0,0,.024c.132.011.263.024.393.039l.036,0,.025,0a11.9,11.9,0,0,1,6.765,3.17l.014.013.028.026.03.028.009.008q.133.128.263.26l.011.011.025.025.036.037,0,0A11.9,11.9,0,0,1-352.17-483.035Z" transform="translate(387 505)"/>
  </g>
</svg>
