<svg xmlns="http://www.w3.org/2000/svg" xmlns:xlink="http://www.w3.org/1999/xlink" width="48" height="48" viewBox="0 0 48 48">
  <defs>
    <clipPath id="clip-_321n">
      <rect width="48" height="48"/>
    </clipPath>
  </defs>
  <g id="_321n" data-name="321n" clip-path="url(#clip-_321n)">
    <path id="Path_448" data-name="Path 448" d="M-358.482-530.119a1.032,1.032,0,0,1-.4-1.37l.918-1.789a.963.963,0,0,1,1.323-.42,1.033,1.033,0,0,1,.4,1.371l-.919,1.789a.974.974,0,0,1-.865.538A.946.946,0,0,1-358.482-530.119Zm-8,0a1.032,1.032,0,0,1-.4-1.37l.917-1.789a.964.964,0,0,1,1.324-.42,1.034,1.034,0,0,1,.406,1.371l-.92,1.789a.975.975,0,0,1-.864.538A.954.954,0,0,1-366.481-530.119Zm-8,0a1.031,1.031,0,0,1-.4-1.37l.917-1.789a.963.963,0,0,1,1.323-.42,1.033,1.033,0,0,1,.4,1.371l-.919,1.789a.976.976,0,0,1-.865.538A.943.943,0,0,1-374.481-530.119ZM-356-535.3a1.031,1.031,0,0,1-.4-1.37l1.193-2.327H-353l-1.682,3.278a.976.976,0,0,1-.865.537A.95.95,0,0,1-356-535.3Zm-8,0a1.03,1.03,0,0,1-.4-1.37l1.193-2.327H-361l-1.681,3.278a.978.978,0,0,1-.867.537A.951.951,0,0,1-364.005-535.3Zm-8,0a1.03,1.03,0,0,1-.4-1.37l1.192-2.327H-369l-1.682,3.278a.978.978,0,0,1-.866.537A.952.952,0,0,1-372.005-535.3Zm-4-5.7a8,8,0,0,1-8-8,8,8,0,0,1,8-8h0c.217,0,.444.009.672.027a11.959,11.959,0,0,1,2.6-4.263l.011-.012.009-.009a11.965,11.965,0,0,1,7.709-3.7,11.656,11.656,0,0,1,2.358-6.858A11.848,11.848,0,0,1-356.663-576a11.811,11.811,0,0,0-.5,3.414,11.766,11.766,0,0,0,11.751,11.752,11.751,11.751,0,0,0,3.415-.5,11.841,11.841,0,0,1-4.184,5.979,11.69,11.69,0,0,1-5.816,2.3V-553h2a5.986,5.986,0,0,1,1.535.2,6,6,0,0,1,4.455,5.467q.009.166.009.334h0a6,6,0,0,1-6,6Zm14.1-28.541a9.879,9.879,0,0,0-1.1,4.558.192.192,0,0,0,0,.023,11.913,11.913,0,0,1,7.485,3.474,11.913,11.913,0,0,1,3.344,6.45,9.837,9.837,0,0,0,3.711-1.063A10.069,10.069,0,0,0-345-559.033c-.351.028-.7.04-1.029.04a12.993,12.993,0,0,1-12.978-12.979c0-.345.013-.69.04-1.029A10.1,10.1,0,0,0-361.9-569.541Z" transform="translate(387 577)"/>
  </g>
</svg>
