<svg xmlns="http://www.w3.org/2000/svg" xmlns:xlink="http://www.w3.org/1999/xlink" width="48" height="48" viewBox="0 0 48 48">
  <defs>
    <clipPath id="clip-_621">
      <rect width="48" height="48"/>
    </clipPath>
  </defs>
  <g id="_621" data-name="621" clip-path="url(#clip-_621)">
    <path id="Path_470" data-name="Path 470" d="M-638.075-607.027a.837.837,0,0,1-.582-1.018l.5-1.795-1.814.48a.818.818,0,0,1-1-.583.825.825,0,0,1,.582-1.005l1.792-.469-1.324-1.327a.866.866,0,0,1,0-1.177.866.866,0,0,1,1.2,0l1.3,1.337.468-1.806a.823.823,0,0,1,1-.583.815.815,0,0,1,.581,1.006l-.5,1.795,1.814-.48a.878.878,0,0,1,1.039.583.864.864,0,0,1-.6,1.006l-1.8.468,1.324,1.338a.829.829,0,0,1,0,1.166.825.825,0,0,1-1.164,0l-1.324-1.326-.48,1.817a.829.829,0,0,1-.8.6A.812.812,0,0,1-638.075-607.027Zm-10,0a.837.837,0,0,1-.582-1.018l.5-1.795-1.814.48a.818.818,0,0,1-1-.583.824.824,0,0,1,.582-1.005l1.792-.469-1.324-1.327a.864.864,0,0,1,0-1.177.866.866,0,0,1,1.2,0l1.3,1.337.468-1.806a.823.823,0,0,1,1-.583.815.815,0,0,1,.581,1.006l-.5,1.795,1.815-.48a.878.878,0,0,1,1.039.583.864.864,0,0,1-.606,1.006l-1.8.468,1.324,1.338a.828.828,0,0,1,0,1.166.826.826,0,0,1-1.165,0l-1.323-1.326-.48,1.817a.829.829,0,0,1-.8.6A.812.812,0,0,1-648.075-607.027Zm-10,0a.836.836,0,0,1-.582-1.018l.5-1.795-1.814.48a.818.818,0,0,1-1-.583.824.824,0,0,1,.582-1.005l1.792-.469-1.324-1.327a.864.864,0,0,1,0-1.177.866.866,0,0,1,1.2,0l1.3,1.337.468-1.806a.823.823,0,0,1,1-.583.815.815,0,0,1,.581,1.006l-.5,1.795,1.815-.48a.877.877,0,0,1,1.038.583.863.863,0,0,1-.6,1.006l-1.8.468,1.324,1.338a.828.828,0,0,1,0,1.166.826.826,0,0,1-1.165,0l-1.324-1.326-.479,1.817a.829.829,0,0,1-.8.6A.812.812,0,0,1-658.075-607.027Zm-10,0a.836.836,0,0,1-.582-1.018l.5-1.795-1.814.48a.818.818,0,0,1-1-.583.824.824,0,0,1,.582-1.005l1.792-.469-1.324-1.327a.864.864,0,0,1,0-1.177.866.866,0,0,1,1.2,0l1.3,1.337.468-1.806a.823.823,0,0,1,1-.583.815.815,0,0,1,.582,1.006l-.5,1.795,1.814-.48a.878.878,0,0,1,1.039.583.863.863,0,0,1-.6,1.006l-1.8.468,1.324,1.338a.828.828,0,0,1,0,1.166.826.826,0,0,1-1.165,0l-1.324-1.326-.479,1.817a.829.829,0,0,1-.8.6A.812.812,0,0,1-668.075-607.027Z" transform="translate(676 651)" fill="#03a9f4"/>
    <path id="Subtraction_81" data-name="Subtraction 81" d="M-930-258h-22.1a7.959,7.959,0,0,1-5.587-2.379A7.95,7.95,0,0,1-960-266a8.074,8.074,0,0,1,.063-1,8,8,0,0,1,1.257-3.4,8.239,8.239,0,0,1,.588-.783c.163-.19.33-.368.5-.531a7.95,7.95,0,0,1,4.236-2.174,11.883,11.883,0,0,1,2.875-4.6A11.915,11.915,0,0,1-942-282a11.915,11.915,0,0,1,8.485,3.514A11.918,11.918,0,0,1-930-270a6.008,6.008,0,0,1,6,6,6.007,6.007,0,0,1-6,6Zm-22-14a5.973,5.973,0,0,0-1.882.3c-.08.025-.17.059-.281.1l-.012,0-.012.005-.013,0A5.975,5.975,0,0,0-958-266a6.026,6.026,0,0,0,5.9,6h22.109a3.945,3.945,0,0,0,.7-.064A3.993,3.993,0,0,0-926-264a4,4,0,0,0-4-4c-.068,0-.112,0-.15,0a3.968,3.968,0,0,0-2.245.793,10.021,10.021,0,0,0,.4-2.8,10.011,10.011,0,0,0-10-10,10,10,0,0,0-9.183,6.042,7.973,7.973,0,0,1,5.1,2.582A7.975,7.975,0,0,1-944-266h-2a5.963,5.963,0,0,0-1.76-4.241A5.956,5.956,0,0,0-952-272Z" transform="translate(966 293)"/>
    <path id="Path_651" data-name="Path 651" d="M-955.869,16.571h0A8.973,8.973,0,0,1-960,9a9.01,9.01,0,0,1,9-9,8.927,8.927,0,0,1,5.353,1.764,8.957,8.957,0,0,1,3.218,4.481,11.92,11.92,0,0,0-6.054,3.27,11.881,11.881,0,0,0-2.875,4.6,7.948,7.948,0,0,0-4.236,2.174c-.091.088-.183.183-.273.28Z" transform="translate(963 4)" fill="#ffc107"/>
  </g>
</svg>
