<svg xmlns="http://www.w3.org/2000/svg" xmlns:xlink="http://www.w3.org/1999/xlink" width="48" height="48" viewBox="0 0 48 48">
  <defs>
    <clipPath id="clip-_731">
      <rect width="48" height="48"/>
    </clipPath>
  </defs>
  <g id="_731" data-name="731" clip-path="url(#clip-_731)">
    <path id="Path_228" data-name="Path 228" d="M-1055.5-189a.494.494,0,0,1-.463-.309.493.493,0,0,1,.109-.545l8.793-8.793a.5.5,0,0,1,.354-.147.5.5,0,0,1,.354.147l8.793,8.793a.491.491,0,0,1,.108.545.492.492,0,0,1-.462.309Zm19.086-1.5a.488.488,0,0,0-.147-.354l-4.9-4.9,1.9-1.9a.5.5,0,0,1,.354-.147.5.5,0,0,1,.354.147l6.293,6.293a.491.491,0,0,1,.108.544.494.494,0,0,1-.462.31Z" transform="translate(1058 227)" fill="#cabc91"/>
    <path id="Path_676" data-name="Path 676" d="M-1158.5-177a5.384,5.384,0,0,1-4.865-3,1.513,1.513,0,0,1-.085-.5,1.5,1.5,0,0,1,1.5-1.5c.8,0,1.425.958,1.451,1a2.48,2.48,0,0,0,2,1,2.5,2.5,0,0,0,2.5-2.5,2.505,2.505,0,0,0-2.5-2.5h-9.912a.491.491,0,0,0-.148-.352l-2.647-2.647h13.2v.023a5.482,5.482,0,0,1,3.55,1.759A5.48,5.48,0,0,1-1153-182.5,5.506,5.506,0,0,1-1158.5-177Zm-26.2-16h-1.8a1.5,1.5,0,0,1-1.5-1.5,1.5,1.5,0,0,1,1.5-1.5h30a2.505,2.505,0,0,0,2.5-2.5,2.5,2.5,0,0,0-2.5-2.5,2.48,2.48,0,0,0-2,1c-.026.041-.642,1-1.451,1a1.5,1.5,0,0,1-1.5-1.5,1.513,1.513,0,0,1,.085-.5,5.385,5.385,0,0,1,4.865-3,5.506,5.506,0,0,1,5.5,5.5,5.483,5.483,0,0,1-1.451,3.718,5.483,5.483,0,0,1-3.549,1.759V-193h-26.7l-.645-.645a.5.5,0,0,0-.354-.147.5.5,0,0,0-.354.147l-.645.645Zm13.2-8h-17a1.5,1.5,0,0,1-1.5-1.5,1.5,1.5,0,0,1,1.5-1.5c4.909,0,8.871,0,11.777,0,1.614,0,4.432,0,5.169,0h.054a4.505,4.505,0,0,0,4.5-4.5,4.505,4.505,0,0,0-4.5-4.5,4.487,4.487,0,0,0-2.519.772,2.583,2.583,0,0,1-1.481.728,1.5,1.5,0,0,1-1.5-1.5c0-.733,1-1.492,1.006-1.5a7.553,7.553,0,0,1,4.495-1.5,7.508,7.508,0,0,1,7.5,7.5A7.509,7.509,0,0,1-1171.5-201Z" transform="translate(1194.999 221)"/>
  </g>
</svg>
