<svg xmlns="http://www.w3.org/2000/svg" xmlns:xlink="http://www.w3.org/1999/xlink" width="48" height="48" viewBox="0 0 48 48">
  <defs>
    <clipPath id="clip-_762">
      <rect width="48" height="48"/>
    </clipPath>
  </defs>
  <g id="_762" data-name="762" clip-path="url(#clip-_762)">
    <path id="Path_230" data-name="Path 230" d="M-1040-477.617h-16l6.207-9.143a2.248,2.248,0,0,0,1.793.895,2.254,2.254,0,0,0,1.793-.895l6.205,9.141v0Zm24.1-1.663c-1.082-.94-3.025-2.262-3.955-2.262-.484,0-1.087.518-1.669,1.021l-.058.048a4.736,4.736,0,0,1-2.957,1.464,4.926,4.926,0,0,1-3.108-1.537l-.071-.058a3.267,3.267,0,0,0-1.6-.938c-.481,0-1.056.5-1.612.984l-.016.014a4.75,4.75,0,0,1-3.057,1.534,4.738,4.738,0,0,1-3.055-1.534l-.018-.015-.022-.019c-.583-.5-1.132-.965-1.59-.965a1.666,1.666,0,0,0-.91.389l-1.357-2A3.865,3.865,0,0,1-1038.7-484a4.748,4.748,0,0,1,3.058,1.536l.014.013.022.018c.582.5,1.132.966,1.59.966.481,0,1.056-.5,1.612-.984l.016-.014a4.745,4.745,0,0,1,3.057-1.535,4.933,4.933,0,0,1,3.108,1.537l.071.059a3.271,3.271,0,0,0,1.6.937c.427,0,1.025-.516,1.554-.971l.049-.042a4.867,4.867,0,0,1,3.081-1.519c1.9,0,4.437,1.968,5.439,2.815a1.284,1.284,0,0,1,.163,1.733,1.127,1.127,0,0,1-.9.451A1.133,1.133,0,0,1-1015.9-479.28Zm0-10c-1.09-.947-3.027-2.262-3.955-2.262-.475,0-1.055.491-1.669,1.021a4.847,4.847,0,0,1-3.015,1.512,4.924,4.924,0,0,1-3.108-1.537c-.615-.5-1.194-1-1.67-1s-1.031.48-1.612.984a4.766,4.766,0,0,1-3.073,1.549,4.77,4.77,0,0,1-3.073-1.549c-.591-.5-1.148-.984-1.612-.984-.487,0-1.056.48-1.67,1a4.893,4.893,0,0,1-3.108,1.537,4.785,4.785,0,0,1-3.015-1.512c-.6-.529-1.182-1.021-1.669-1.021-.94,0-2.875,1.328-3.955,2.262a1.115,1.115,0,0,1-1.634-.172,1.281,1.281,0,0,1,.162-1.733c.534-.467,3.34-2.815,5.415-2.815a4.922,4.922,0,0,1,3.131,1.562c.556.48,1.137.971,1.553.971.488,0,1.056-.48,1.67-1A4.9,4.9,0,0,1-1038.7-494a4.765,4.765,0,0,1,3.073,1.549c.591.5,1.148.984,1.612.984s1.032-.48,1.612-.984a4.768,4.768,0,0,1,3.073-1.549,4.929,4.929,0,0,1,3.108,1.536c.614.5,1.194,1,1.67,1,.418,0,1-.491,1.553-.971a4.955,4.955,0,0,1,3.131-1.562c2.076,0,4.871,2.336,5.439,2.815a1.281,1.281,0,0,1,.162,1.733,1.125,1.125,0,0,1-.9.451A1.127,1.127,0,0,1-1015.9-489.28Zm0-10c-1.09-.947-3.027-2.262-3.955-2.262-.475,0-1.055.491-1.669,1.02a4.844,4.844,0,0,1-3.015,1.513,4.924,4.924,0,0,1-3.108-1.537c-.615-.5-1.194-1-1.67-1s-1.031.479-1.612.983a4.767,4.767,0,0,1-3.073,1.55,4.767,4.767,0,0,1-3.073-1.55c-.591-.5-1.148-.983-1.612-.983-.487,0-1.056.479-1.67,1a4.893,4.893,0,0,1-3.108,1.537,4.782,4.782,0,0,1-3.015-1.513c-.6-.528-1.182-1.02-1.669-1.02-.94,0-2.875,1.327-3.955,2.262a1.115,1.115,0,0,1-1.634-.172,1.281,1.281,0,0,1,.162-1.733c.534-.467,3.34-2.815,5.415-2.815a4.922,4.922,0,0,1,3.131,1.561c.556.479,1.137.971,1.553.971.488,0,1.056-.48,1.67-1A4.9,4.9,0,0,1-1038.7-504a4.765,4.765,0,0,1,3.073,1.549c.591.5,1.148.984,1.612.984s1.032-.48,1.612-.984a4.768,4.768,0,0,1,3.073-1.549,4.929,4.929,0,0,1,3.108,1.536c.614.5,1.194,1,1.67,1,.418,0,1-.492,1.553-.971a4.955,4.955,0,0,1,3.131-1.561c2.076,0,4.871,2.335,5.439,2.815a1.281,1.281,0,0,1,.162,1.733,1.125,1.125,0,0,1-.9.451A1.127,1.127,0,0,1-1015.9-499.28Z" transform="translate(1059 515)"/>
  </g>
</svg>
