<svg xmlns="http://www.w3.org/2000/svg" xmlns:xlink="http://www.w3.org/1999/xlink" width="24" height="24" viewBox="0 0 24 24">
  <defs>
    <clipPath id="clip-search">
      <rect width="24" height="24"/>
    </clipPath>
  </defs>
  <g id="search" clip-path="url(#clip-search)">
    <path id="Union_83" data-name="Union 83" d="M-1154.354-519.111a1.5,1.5,0,0,1,0-2.121l4.45-4.449a7.953,7.953,0,0,1-1.268-4.318,8.009,8.009,0,0,1,8-8,8.01,8.01,0,0,1,8,8,8.009,8.009,0,0,1-8,8,7.958,7.958,0,0,1-4.666-1.505l-4.395,4.394a1.5,1.5,0,0,1-1.061.439A1.5,1.5,0,0,1-1154.354-519.111Zm6.182-10.889a5.006,5.006,0,0,0,5,5,5.005,5.005,0,0,0,5-5,5.005,5.005,0,0,0-5-5A5.005,5.005,0,0,0-1148.171-530Z" transform="translate(1156.793 540)"/>
  </g>
</svg>
