<svg xmlns="http://www.w3.org/2000/svg" xmlns:xlink="http://www.w3.org/1999/xlink" width="48" height="48" viewBox="0 0 48 48">
  <defs>
    <clipPath id="clip-thermometer">
      <rect width="48" height="48"/>
    </clipPath>
  </defs>
  <g id="thermometer" clip-path="url(#clip-thermometer)">
    <path id="Path_235" data-name="Path 235" d="M-1152-43a8.981,8.981,0,0,1,1.389-4.806A9.026,9.026,0,0,1-1147-51.065V-68a4,4,0,0,1,4-4,4,4,0,0,1,4,4v16.935a9.028,9.028,0,0,1,3.612,3.259A8.981,8.981,0,0,1-1134-43a9.01,9.01,0,0,1-9,9A9.01,9.01,0,0,1-1152-43Zm7-25v18.29a7.04,7.04,0,0,0-5,6.71,7.008,7.008,0,0,0,7,7,7.008,7.008,0,0,0,7-7,7.041,7.041,0,0,0-5-6.71V-68a2,2,0,0,0-2-2A2,2,0,0,0-1145-68Zm-3,25a4.994,4.994,0,0,1,2.155-4.111l1.736-1.258.11-.161V-61a1,1,0,0,1,1-1,1,1,0,0,1,1,1v12.469l.11.161,1.736,1.258A4.994,4.994,0,0,1-1138-43a5,5,0,0,1-5,5A5,5,0,0,1-1148-43Zm10-11v-3h4.5a1.5,1.5,0,0,1,1.5,1.5,1.5,1.5,0,0,1-1.5,1.5Zm0-5v-3h6.5a1.5,1.5,0,0,1,1.5,1.5,1.5,1.5,0,0,1-1.5,1.5Zm0-5v-3h2.5a1.5,1.5,0,0,1,1.5,1.5,1.5,1.5,0,0,1-1.5,1.5Z" transform="translate(1165 77)"/>
  </g>
</svg>
