<svg xmlns="http://www.w3.org/2000/svg" xmlns:xlink="http://www.w3.org/1999/xlink" width="48" height="48" viewBox="0 0 48 48">
  <defs>
    <clipPath id="clip-_300">
      <rect width="48" height="48"/>
    </clipPath>
  </defs>
  <g id="_300" data-name="300" clip-path="url(#clip-_300)">
    <path id="Path_437" data-name="Path 437" d="M-262.481,34.881a1.031,1.031,0,0,1-.4-1.37l.918-1.789a.962.962,0,0,1,1.323-.419,1.032,1.032,0,0,1,.4,1.37l-.919,1.789a.974.974,0,0,1-.865.538A.943.943,0,0,1-262.481,34.881Zm-8,0a1.031,1.031,0,0,1-.4-1.37l.918-1.789a.962.962,0,0,1,1.323-.419,1.032,1.032,0,0,1,.4,1.37l-.919,1.789a.974.974,0,0,1-.865.538A.943.943,0,0,1-270.482,34.881Zm-8,0a1.031,1.031,0,0,1-.4-1.37l.918-1.789a.962.962,0,0,1,1.323-.419,1.032,1.032,0,0,1,.4,1.37l-.919,1.789a.975.975,0,0,1-.865.538A.938.938,0,0,1-278.481,34.881Zm18.475-5.184a1.032,1.032,0,0,1-.4-1.371L-259.216,26H-257l-1.682,3.279a.976.976,0,0,1-.865.536A.951.951,0,0,1-260.005,29.7Zm-8,0a1.032,1.032,0,0,1-.4-1.371L-267.216,26H-265l-1.682,3.279a.976.976,0,0,1-.865.536A.951.951,0,0,1-268.006,29.7Zm-8,0a1.032,1.032,0,0,1-.4-1.371L-275.216,26H-273l-1.682,3.279a.976.976,0,0,1-.865.536A.951.951,0,0,1-276,29.7Z" transform="translate(292 7)" fill="#03a9f4"/>
    <path id="Subtraction_88" data-name="Subtraction 88" d="M-930-258h-22.1a7.959,7.959,0,0,1-5.587-2.379A7.95,7.95,0,0,1-960-266a8.074,8.074,0,0,1,.063-1,8,8,0,0,1,1.257-3.4,8.239,8.239,0,0,1,.588-.783c.163-.19.33-.368.5-.531a7.95,7.95,0,0,1,4.236-2.174,11.883,11.883,0,0,1,2.875-4.6A11.915,11.915,0,0,1-942-282a11.915,11.915,0,0,1,8.485,3.514A11.918,11.918,0,0,1-930-270a6.008,6.008,0,0,1,6,6,6.007,6.007,0,0,1-6,6Zm-22-14a5.973,5.973,0,0,0-1.882.3c-.08.025-.17.059-.281.1l-.012,0-.012.005-.013,0A5.975,5.975,0,0,0-958-266a6.026,6.026,0,0,0,5.9,6h22.109a3.945,3.945,0,0,0,.7-.064A3.993,3.993,0,0,0-926-264a4,4,0,0,0-4-4c-.068,0-.112,0-.15,0a3.968,3.968,0,0,0-2.245.793,10.021,10.021,0,0,0,.4-2.8,10.011,10.011,0,0,0-10-10,10,10,0,0,0-9.183,6.042,7.973,7.973,0,0,1,5.1,2.582A7.975,7.975,0,0,1-944-266h-2a5.963,5.963,0,0,0-1.76-4.241A5.956,5.956,0,0,0-952-272Z" transform="translate(966 289)"/>
  </g>
</svg>
