<svg xmlns="http://www.w3.org/2000/svg" xmlns:xlink="http://www.w3.org/1999/xlink" width="48" height="48" viewBox="0 0 48 48">
  <defs>
    <clipPath id="clip-_313n">
      <rect width="48" height="48"/>
    </clipPath>
  </defs>
  <g id="_313n" data-name="313n" clip-path="url(#clip-_313n)">
    <path id="Path_446" data-name="Path 446" d="M-366.481-386.118a1.033,1.033,0,0,1-.4-1.371l.917-1.789a.964.964,0,0,1,1.324-.419,1.034,1.034,0,0,1,.406,1.371l-.92,1.789a.975.975,0,0,1-.864.538A.954.954,0,0,1-366.481-386.118Zm7.973,0a1.011,1.011,0,0,1-.383-1.326l3.8-7.56h2.1l-4.257,8.48a.917.917,0,0,1-.816.52A.888.888,0,0,1-358.508-386.114Zm-16,0a1.01,1.01,0,0,1-.383-1.326l3.8-7.56h2.1l-4.256,8.48a.919.919,0,0,1-.817.52A.887.887,0,0,1-374.508-386.114Zm10.5-5.189a1.032,1.032,0,0,1-.4-1.371l1.193-2.327H-361l-1.681,3.279a.978.978,0,0,1-.867.537A.951.951,0,0,1-364.005-391.3Zm-12-5.7a8,8,0,0,1-8-8,8,8,0,0,1,8-8c.227,0,.452.01.673.028q.073-.208.153-.413l0-.005.018-.045,0-.008.015-.038.007-.018.013-.031.01-.025.01-.024.013-.032.008-.018.017-.04,0-.008a11.954,11.954,0,0,1,1.878-3.056A11.975,11.975,0,0,1-365-420.959a11.656,11.656,0,0,1,2.358-6.858A11.848,11.848,0,0,1-356.663-432a11.811,11.811,0,0,0-.5,3.414,11.766,11.766,0,0,0,11.751,11.752,11.752,11.752,0,0,0,3.415-.5,11.841,11.841,0,0,1-4.184,5.979A11.69,11.69,0,0,1-352-409.064V-409h2a6,6,0,0,1,6,6,6,6,0,0,1-6,6Zm20.486-20.486a11.91,11.91,0,0,1,3.344,6.45,9.838,9.838,0,0,0,3.711-1.063A10.07,10.07,0,0,0-345-415.033c-.351.028-.7.04-1.029.04a12.993,12.993,0,0,1-12.978-12.979c0-.345.013-.69.04-1.029a10.1,10.1,0,0,0-2.934,3.46,9.879,9.879,0,0,0-1.1,4.558.218.218,0,0,0,0,.024c.132.011.263.024.393.039l.036,0,.025,0A11.915,11.915,0,0,1-355.514-417.486Z" transform="translate(387 433)"/>
  </g>
</svg>
