<svg xmlns="http://www.w3.org/2000/svg" xmlns:xlink="http://www.w3.org/1999/xlink" width="48" height="48" viewBox="0 0 48 48">
  <defs>
    <clipPath id="clip-_503">
      <rect width="48" height="48"/>
    </clipPath>
  </defs>
  <g id="_503" data-name="503" clip-path="url(#clip-_503)">
    <path id="Subtraction_68" data-name="Subtraction 68" d="M30,24H7.9A8,8,0,0,1,1.32,11.6a8.11,8.11,0,0,1,.588-.783c.16-.187.327-.366.5-.531A7.949,7.949,0,0,1,6.641,8.116a12.005,12.005,0,0,1,19.845-4.6A11.921,11.921,0,0,1,30,12a6,6,0,0,1,0,12Zm-11-2.05h0V22H30a4,4,0,0,0,0-8H27.8A10,10,0,0,0,8.818,8.042,8.013,8.013,0,0,1,16,16H14a6,6,0,0,0-7.882-5.7c-.077.025-.161.055-.281.1l-.012,0-.012.005-.013,0A6,6,0,0,0,7.9,22H18.129c.29,0,.582-.02.87-.049Z" transform="translate(6 7)"/>
    <path id="Path_624" data-name="Path 624" d="M-162.509-37.115a1.01,1.01,0,0,1-.383-1.325l3.8-7.56h2.1l-4.256,8.48a.917.917,0,0,1-.817.52A.891.891,0,0,1-162.509-37.115Z" transform="translate(169 79)" fill="#03a9f4"/>
    <path id="Path_625" data-name="Path 625" d="M-162.509-37.115a1.01,1.01,0,0,1-.383-1.325l3.8-7.56h2.1l-4.256,8.48a.917.917,0,0,1-.817.52A.891.891,0,0,1-162.509-37.115Z" transform="translate(175 79)" fill="#03a9f4"/>
    <path id="Path_626" data-name="Path 626" d="M-162.509-37.115a1.01,1.01,0,0,1-.383-1.325l3.8-7.56h2.1l-4.256,8.48a.917.917,0,0,1-.817.52A.891.891,0,0,1-162.509-37.115Z" transform="translate(181 79)" fill="#03a9f4"/>
    <path id="Path_627" data-name="Path 627" d="M-162.509-37.115a1.01,1.01,0,0,1-.383-1.325l3.8-7.56h2.1l-4.256,8.48a.917.917,0,0,1-.817.52A.891.891,0,0,1-162.509-37.115Z" transform="translate(187 79)" fill="#03a9f4"/>
    <path id="Path_628" data-name="Path 628" d="M-162.509-37.115a1.01,1.01,0,0,1-.383-1.325l3.8-7.56h2.1l-4.256,8.48a.917.917,0,0,1-.817.52A.891.891,0,0,1-162.509-37.115Z" transform="translate(193 79)" fill="#03a9f4"/>
    <path id="Path_629" data-name="Path 629" d="M-162.509-37.115a1.01,1.01,0,0,1-.383-1.325l3.8-7.56h2.1l-4.256,8.48a.917.917,0,0,1-.817.52A.891.891,0,0,1-162.509-37.115Z" transform="translate(199 79)" fill="#03a9f4"/>
  </g>
</svg>
