<svg xmlns="http://www.w3.org/2000/svg" xmlns:xlink="http://www.w3.org/1999/xlink" width="48" height="48" viewBox="0 0 48 48">
  <defs>
    <clipPath id="clip-_615">
      <rect width="48" height="48"/>
    </clipPath>
  </defs>
  <g id="_615" data-name="615" clip-path="url(#clip-_615)">
    <path id="Path_467" data-name="Path 467" d="M-646.51-397.115a1.01,1.01,0,0,1-.383-1.325l3.8-7.56h2.1l-4.257,8.48a.917.917,0,0,1-.817.52A.894.894,0,0,1-646.51-397.115Zm-16,0a1.009,1.009,0,0,1-.383-1.325l3.8-7.56h2.1l-4.257,8.48a.917.917,0,0,1-.816.52A.894.894,0,0,1-662.51-397.115Zm9.436-.912a.835.835,0,0,1-.582-1.017l.5-1.8-1.814.481a.818.818,0,0,1-1-.583.825.825,0,0,1,.581-1.006l1.792-.469-1.324-1.326a.867.867,0,0,1,0-1.178.869.869,0,0,1,1.2,0l1.3,1.338.468-1.806a.823.823,0,0,1,1-.583.814.814,0,0,1,.582,1.006l-.5,1.795,1.814-.481a.879.879,0,0,1,1.039.583.863.863,0,0,1-.6,1.006l-1.8.469,1.324,1.337a.83.83,0,0,1,0,1.166.825.825,0,0,1-1.164,0l-1.324-1.327-.48,1.818a.827.827,0,0,1-.8.6A.822.822,0,0,1-653.074-398.027Z" transform="translate(676 438)" fill="#03a9f4"/>
    <path id="Subtraction_72" data-name="Subtraction 72" d="M-930-258h-22.1a7.959,7.959,0,0,1-5.587-2.379A7.95,7.95,0,0,1-960-266a8.074,8.074,0,0,1,.063-1,8,8,0,0,1,1.257-3.4,8.239,8.239,0,0,1,.588-.783c.163-.19.33-.368.5-.531a7.95,7.95,0,0,1,4.236-2.174,11.883,11.883,0,0,1,2.875-4.6A11.915,11.915,0,0,1-942-282a11.915,11.915,0,0,1,8.485,3.514A11.918,11.918,0,0,1-930-270a6.008,6.008,0,0,1,6,6,6.007,6.007,0,0,1-6,6Zm-22-14a5.973,5.973,0,0,0-1.882.3c-.08.025-.17.059-.281.1l-.012,0-.012.005-.013,0A5.975,5.975,0,0,0-958-266a6.026,6.026,0,0,0,5.9,6h22.109a3.945,3.945,0,0,0,.7-.064A3.993,3.993,0,0,0-926-264a4,4,0,0,0-4-4c-.068,0-.112,0-.15,0a3.968,3.968,0,0,0-2.245.793,10.021,10.021,0,0,0,.4-2.8,10.011,10.011,0,0,0-10-10,10,10,0,0,0-9.183,6.042,7.973,7.973,0,0,1,5.1,2.582A7.975,7.975,0,0,1-944-266h-2a5.963,5.963,0,0,0-1.76-4.241A5.956,5.956,0,0,0-952-272Z" transform="translate(966 289)"/>
  </g>
</svg>
