<svg xmlns="http://www.w3.org/2000/svg" xmlns:xlink="http://www.w3.org/1999/xlink" width="48" height="48" viewBox="0 0 48 48">
  <defs>
    <clipPath id="clip-_721">
      <rect width="48" height="48"/>
    </clipPath>
  </defs>
  <g id="_721" data-name="721" clip-path="url(#clip-_721)">
    <path id="Path_227" data-name="Path 227" d="M-1017.9-119.28c-1.091-.946-3.027-2.262-3.955-2.262-.475,0-1.056.491-1.669,1.021a4.847,4.847,0,0,1-3.015,1.512,4.922,4.922,0,0,1-3.108-1.537c-.615-.5-1.2-1-1.67-1s-1.032.48-1.612.984a4.765,4.765,0,0,1-3.073,1.549,4.77,4.77,0,0,1-3.074-1.549c-.591-.5-1.147-.984-1.611-.984-.488,0-1.056.48-1.67,1a4.9,4.9,0,0,1-3.108,1.537,4.785,4.785,0,0,1-3.015-1.512c-.6-.529-1.183-1.021-1.669-1.021-.94,0-2.876,1.327-3.955,2.262a1.115,1.115,0,0,1-1.634-.172,1.281,1.281,0,0,1,.162-1.733c.534-.467,3.34-2.815,5.415-2.815a4.922,4.922,0,0,1,3.131,1.562c.556.48,1.136.971,1.553.971.487,0,1.056-.48,1.67-1A4.9,4.9,0,0,1-1040.7-124a4.768,4.768,0,0,1,3.073,1.549c.591.5,1.148.984,1.612.984s1.032-.48,1.612-.984a4.768,4.768,0,0,1,3.073-1.549,4.921,4.921,0,0,1,3.108,1.537c.615.5,1.2,1,1.67,1,.418,0,1-.491,1.553-.971a4.954,4.954,0,0,1,3.131-1.562c2.075,0,4.871,2.336,5.439,2.815a1.281,1.281,0,0,1,.162,1.733,1.127,1.127,0,0,1-.9.451A1.126,1.126,0,0,1-1017.9-119.28Zm0-10c-1.091-.947-3.027-2.262-3.955-2.262-.475,0-1.056.491-1.669,1.021a4.847,4.847,0,0,1-3.015,1.512,4.922,4.922,0,0,1-3.108-1.537c-.615-.5-1.2-1-1.67-1s-1.032.48-1.612.984a4.765,4.765,0,0,1-3.073,1.549,4.774,4.774,0,0,1-3.074-1.549c-.591-.5-1.147-.984-1.611-.984-.488,0-1.056.48-1.67,1a4.9,4.9,0,0,1-3.108,1.537,4.785,4.785,0,0,1-3.015-1.512c-.6-.529-1.183-1.021-1.669-1.021-.94,0-2.876,1.327-3.955,2.262a1.115,1.115,0,0,1-1.634-.172,1.281,1.281,0,0,1,.162-1.733c.534-.467,3.34-2.815,5.415-2.815a4.922,4.922,0,0,1,3.131,1.562c.556.48,1.136.971,1.553.971.487,0,1.056-.48,1.67-1A4.9,4.9,0,0,1-1040.7-134a4.768,4.768,0,0,1,3.073,1.549c.591.5,1.148.984,1.612.984s1.032-.48,1.612-.984a4.768,4.768,0,0,1,3.073-1.549,4.925,4.925,0,0,1,3.108,1.536c.615.5,1.2,1,1.67,1,.418,0,1-.491,1.553-.971a4.954,4.954,0,0,1,3.131-1.562c2.075,0,4.871,2.336,5.439,2.815a1.281,1.281,0,0,1,.162,1.733,1.127,1.127,0,0,1-.9.451A1.126,1.126,0,0,1-1017.9-129.28Zm0-10c-1.091-.947-3.027-2.262-3.955-2.262-.475,0-1.056.491-1.669,1.02a4.844,4.844,0,0,1-3.015,1.513,4.922,4.922,0,0,1-3.108-1.537c-.615-.5-1.2-1-1.67-1s-1.032.479-1.612.983a4.766,4.766,0,0,1-3.073,1.55,4.771,4.771,0,0,1-3.074-1.55c-.591-.5-1.147-.983-1.611-.983-.488,0-1.056.479-1.67,1a4.9,4.9,0,0,1-3.108,1.537,4.782,4.782,0,0,1-3.015-1.513c-.6-.528-1.183-1.02-1.669-1.02-.94,0-2.876,1.327-3.955,2.262a1.115,1.115,0,0,1-1.634-.172,1.281,1.281,0,0,1,.162-1.733c.534-.467,3.34-2.815,5.415-2.815a4.922,4.922,0,0,1,3.131,1.561c.556.479,1.136.971,1.553.971.487,0,1.056-.48,1.67-1A4.894,4.894,0,0,1-1040.7-144a4.768,4.768,0,0,1,3.073,1.549c.591.5,1.148.984,1.612.984s1.032-.48,1.612-.984a4.768,4.768,0,0,1,3.073-1.549,4.92,4.92,0,0,1,3.108,1.536c.615.5,1.2,1,1.67,1,.418,0,1-.492,1.553-.971a4.954,4.954,0,0,1,3.131-1.561c2.075,0,4.871,2.335,5.439,2.815a1.281,1.281,0,0,1,.162,1.733,1.127,1.127,0,0,1-.9.451A1.126,1.126,0,0,1-1017.9-139.28Z" transform="translate(1060 156)"/>
  </g>
</svg>
