<svg xmlns="http://www.w3.org/2000/svg" xmlns:xlink="http://www.w3.org/1999/xlink" width="48" height="48" viewBox="0 0 48 48">
  <defs>
    <clipPath id="clip-_771">
      <rect width="48" height="48"/>
    </clipPath>
  </defs>
  <g id="_771" data-name="771" clip-path="url(#clip-_771)">
    <path id="Path_231" data-name="Path 231" d="M-1056-543.545c0-2.16,1.4-4.41,2.685-6.285a37.37,37.37,0,0,1,2.565-3.33l.75-.841.751.841a37.56,37.56,0,0,1,2.565,3.33c1.29,1.875,2.685,4.125,2.685,6.285a6,6,0,0,1-6,6A6,6,0,0,1-1056-543.545Z" transform="translate(1061 580)" fill="#03a9f4"/>
    <path id="Subtraction_105" data-name="Subtraction 105" d="M-1173-540h-4a2,2,0,0,1-1.842-1.219,6,6,0,0,0,1.638-2.77,2.036,2.036,0,0,1,.2-.01h4a2,2,0,0,1,2,2A2,2,0,0,1-1173-540Zm6-8h-10.514a19.565,19.565,0,0,0-2.171-3.829l-.015-.022-.012-.017A1.99,1.99,0,0,1-1179-552h12a2,2,0,0,1,2,2A2,2,0,0,1-1167-548Zm10-8h-20a2,2,0,0,1-2-2,2,2,0,0,1,2-2h20a2,2,0,0,1,2,2A2,2,0,0,1-1157-556Zm-2-8h-28a2,2,0,0,1-2-2,2,2,0,0,1,2-2h28a2,2,0,0,1,2,2A2,2,0,0,1-1159-564Zm4-8h-36a2,2,0,0,1-2-2,2,2,0,0,1,2-2h36a2,2,0,0,1,2,2A2,2,0,0,1-1155-572Z" transform="translate(1197 582)"/>
  </g>
</svg>
