<svg xmlns="http://www.w3.org/2000/svg" xmlns:xlink="http://www.w3.org/1999/xlink" width="48" height="48" viewBox="0 0 48 48">
  <defs>
    <clipPath id="clip-_800n">
      <rect width="48" height="48"/>
    </clipPath>
  </defs>
  <g id="_800n" data-name="800n" clip-path="url(#clip-_800n)">
    <path id="Union_154" data-name="Union 154" d="M-860.557-43.442A11.675,11.675,0,0,1-864-51.752a11.654,11.654,0,0,1,2.36-7.065A11.844,11.844,0,0,1-855.662-63a11.793,11.793,0,0,0-.5,3.414,11.765,11.765,0,0,0,11.751,11.752,11.766,11.766,0,0,0,3.415-.5,11.854,11.854,0,0,1-4.184,5.979A11.654,11.654,0,0,1-852.249-40,11.673,11.673,0,0,1-860.557-43.442Z" transform="translate(874 79.23)" fill="#673ab7"/>
    <path id="Polygon_4" data-name="Polygon 4" d="M3.757.991a.25.25,0,0,1,.486,0l.507,2.07a.25.25,0,0,0,.259.19L7.07,3.116a.25.25,0,0,1,.155.457L5.459,4.754a.25.25,0,0,0-.1.3l.761,2.027a.25.25,0,0,1-.4.277L4.164,6a.25.25,0,0,0-.328,0L2.273,7.353a.25.25,0,0,1-.4-.277L2.636,5.05a.25.25,0,0,0-.1-.3L.775,3.574A.25.25,0,0,1,.93,3.116l2.061.134a.25.25,0,0,0,.259-.19Z" transform="translate(25 10)" fill="#673ab7"/>
    <path id="Polygon_5" data-name="Polygon 5" d="M2.757.991a.25.25,0,0,1,.486,0L3.55,2.245a.25.25,0,0,0,.259.19L5.07,2.352a.25.25,0,0,1,.155.457l-1.09.728a.25.25,0,0,0-.1.3l.467,1.243a.25.25,0,0,1-.4.277l-.945-.821a.25.25,0,0,0-.328,0l-.945.821a.25.25,0,0,1-.4-.277l.467-1.243a.25.25,0,0,0-.1-.3L.775,2.81A.25.25,0,0,1,.93,2.352l1.261.082a.25.25,0,0,0,.259-.19Z" transform="translate(32 19)" fill="#673ab7"/>
  </g>
</svg>
