<svg xmlns="http://www.w3.org/2000/svg" xmlns:xlink="http://www.w3.org/1999/xlink" width="48" height="48" viewBox="0 0 48 48">
  <defs>
    <clipPath id="clip-_804n">
      <rect width="48" height="48"/>
    </clipPath>
  </defs>
  <g id="_804n" data-name="804n" clip-path="url(#clip-_804n)">
    <path id="Union_156" data-name="Union 156" d="M-947.1-120a7.961,7.961,0,0,1-5.587-2.379A7.953,7.953,0,0,1-955-128a8.15,8.15,0,0,1,.063-1,8,8,0,0,1,1.257-3.4,8.23,8.23,0,0,1,.588-.783c.163-.19.33-.369.5-.531a7.945,7.945,0,0,1,4.235-2.174,11.882,11.882,0,0,1,2.875-4.6A11.918,11.918,0,0,1-937-144a11.915,11.915,0,0,1,8.485,3.514A11.914,11.914,0,0,1-925-132a6.007,6.007,0,0,1,6,6,6.008,6.008,0,0,1-6,6h-22.1Zm-1.783-13.7c-.08.025-.17.059-.281.1l-.012,0-.012.005-.013,0A5.975,5.975,0,0,0-953-128a6.027,6.027,0,0,0,5.9,6h22.108a3.947,3.947,0,0,0,.7-.064A3.993,3.993,0,0,0-921-126a4,4,0,0,0-4-4c-.068,0-.112,0-.15,0a3.965,3.965,0,0,0-2.245.793,10.014,10.014,0,0,0,.4-2.8,10.011,10.011,0,0,0-10-10,10,10,0,0,0-9.183,6.042,7.967,7.967,0,0,1,5.1,2.582A7.971,7.971,0,0,1-939-128h-2a5.96,5.96,0,0,0-1.76-4.241A5.954,5.954,0,0,0-947-134,5.974,5.974,0,0,0-948.881-133.7Zm30.786,6.628h0a5.944,5.944,0,0,0-.713-1.935A3.993,3.993,0,0,0-915-133a4.006,4.006,0,0,0-3.235-3.927A4.052,4.052,0,0,0-919-137a4.019,4.019,0,0,0-.886.1c-.13.03-.259.066-.386.108a6.272,6.272,0,0,0-.338-.849l-.006-.013c0-.009-.008-.017-.013-.024a6.007,6.007,0,0,0-.559-.907A5.92,5.92,0,0,0-926-141a5.962,5.962,0,0,0-1.769.266,12.177,12.177,0,0,0-1.819-1.416A7.9,7.9,0,0,1-926-143a7.912,7.912,0,0,1,4.964,1.731,8.019,8.019,0,0,1,1.96,2.27H-919a6.006,6.006,0,0,1,6,6,6,6,0,0,1-1.467,3.927,6.006,6.006,0,0,1-3.627,2Zm-37.9-1.272A6.013,6.013,0,0,1-960-134a6.007,6.007,0,0,1,6-6h.077a8.048,8.048,0,0,1,1.96-2.27A7.909,7.909,0,0,1-947-144a7.983,7.983,0,0,1,4.011,1.08,11.913,11.913,0,0,0-2.1,1.233A5.968,5.968,0,0,0-947-142a5.939,5.939,0,0,0-4.814,2.412,6.445,6.445,0,0,0-.61,1.021l0,.007-.013.024a6.333,6.333,0,0,0-.287.742c-.13-.043-.26-.08-.387-.109A4.067,4.067,0,0,0-954-138a4.05,4.05,0,0,0-.765.073A4.005,4.005,0,0,0-958-134a4.012,4.012,0,0,0,2.357,3.647,7.987,7.987,0,0,0-.293,1.355c-.027.22-.046.44-.055.656v0Z" transform="translate(960.5 160)"/>
    <path id="Path_609" data-name="Path 609" d="M-920.5-204.808l0,0c-.17-.161-.348-.315-.531-.46a8.064,8.064,0,0,0-1.68-1.028A4,4,0,0,0-926.5-209h-.063a4.022,4.022,0,0,0-1.219.211l-.01,0-.007,0a4.033,4.033,0,0,0-.719.33c-.006-.079-.014-.162-.024-.254v-.008c0-.01,0-.019,0-.028l0-.024,0-.013v-.018l0-.031c0-.007,0-.013,0-.02s0-.014,0-.021v-.022A6.037,6.037,0,0,0-934.5-214a6.007,6.007,0,0,0-6,6c0,.17.007.342.021.51a11.871,11.871,0,0,0-1.92.767,8.051,8.051,0,0,1-.1-1.277,8.009,8.009,0,0,1,8-8,7.958,7.958,0,0,1,4.517,1.4,7.987,7.987,0,0,1,2.912,3.627c.191-.018.383-.027.572-.027a6.007,6.007,0,0,1,6,6q0,.1,0,.19Z" transform="translate(960.5 223)"/>
    <path id="Path_614" data-name="Path 614" d="M2.222,10.993v0A9,9,0,0,1,11,0a8.906,8.906,0,0,1,5.441,1.836,8,8,0,0,0-4.364,8.279A7.99,7.99,0,0,0,8,9c-.083,0-.168,0-.252,0S7.581,9,7.5,9a7.908,7.908,0,0,0-4.963,1.731c-.112.089-.217.177-.313.262Z" transform="translate(5 6)" fill="#3f51b5"/>
  </g>
</svg>
