<svg xmlns="http://www.w3.org/2000/svg" xmlns:xlink="http://www.w3.org/1999/xlink" width="48" height="48" viewBox="0 0 48 48">
  <defs>
    <clipPath id="clip-min_max">
      <rect width="48" height="48"/>
    </clipPath>
  </defs>
  <g id="min_max" clip-path="url(#clip-min_max)">
    <path id="Union_135" data-name="Union 135" d="M-1128.019-265.5v-19.279l-4.232,4.117a1.044,1.044,0,0,1-1.449,0,.977.977,0,0,1,0-1.409l5.8-5.64a1.043,1.043,0,0,1,.9-.278,1.165,1.165,0,0,1,.176-.014,1.036,1.036,0,0,1,.725.292l5.8,5.64a.977.977,0,0,1,0,1.409,1.045,1.045,0,0,1-1.45,0l-4.217-4.1V-265.5c0,.826-.459,1.5-1.025,1.5S-1128.019-264.669-1128.019-265.5Zm-16.982,1.48a1.039,1.039,0,0,1-.9-.277l-5.8-5.64a.977.977,0,0,1,0-1.409,1.044,1.044,0,0,1,1.449,0l4.232,4.117V-286.5c0-.826.46-1.5,1.026-1.5s1.025.67,1.025,1.5v19.264l4.217-4.1a1.045,1.045,0,0,1,1.45,0,.977.977,0,0,1,0,1.409l-5.8,5.64a1.036,1.036,0,0,1-.725.293A1.059,1.059,0,0,1-1145-264.015Z" transform="translate(1160 300)"/>
  </g>
</svg>
