<svg xmlns="http://www.w3.org/2000/svg" xmlns:xlink="http://www.w3.org/1999/xlink" width="48" height="48" viewBox="0 0 48 48">
  <defs>
    <clipPath id="clip-sunrise">
      <rect width="48" height="48"/>
    </clipPath>
  </defs>
  <g id="sunrise" clip-path="url(#clip-sunrise)">
    <path id="Path_296" data-name="Path 296" d="M-1146-115.414a1,1,0,0,1-1-1,1,1,0,0,1,1-1h30a1,1,0,0,1,1,1,1,1,0,0,1-1,1Zm-5-4a1,1,0,0,1-1-1,1,1,0,0,1,1-1h8a11.924,11.924,0,0,1,3.515-8.485,11.924,11.924,0,0,1,8.485-3.514,11.926,11.926,0,0,1,8.486,3.514,11.923,11.923,0,0,1,3.515,8.484h-2a9.934,9.934,0,0,0-2.932-7.068,9.932,9.932,0,0,0-7.068-2.932,10.011,10.011,0,0,0-10,10h30a1,1,0,0,1,1,1,1,1,0,0,1-1,1Zm33.174-3.627a1,1,0,0,1,.811-1.158l5.909-1.042a1,1,0,0,1,1.159.812,1,1,0,0,1-.812,1.158l-5.909,1.042a1.006,1.006,0,0,1-.174.015A1,1,0,0,1-1117.826-123.041Zm-27.28.812-5.909-1.042a1,1,0,0,1-.811-1.158,1,1,0,0,1,1.158-.812l5.908,1.042a1,1,0,0,1,.812,1.158,1,1,0,0,1-.984.827A1.007,1.007,0,0,1-1145.106-122.229Zm22.872-8.414a1,1,0,0,1-.123-1.409l3.857-4.6a1,1,0,0,1,1.409-.123,1,1,0,0,1,.123,1.409l-3.857,4.6a1,1,0,0,1-.767.357A1,1,0,0,1-1122.234-130.643Zm-19.266-.123-3.857-4.6a1,1,0,0,1,.123-1.409,1,1,0,0,1,1.409.123l3.856,4.6a1,1,0,0,1-.122,1.409,1,1,0,0,1-.642.234A1,1,0,0,1-1141.5-130.766Zm9.5-4.648V-140.7l-.878.878a1,1,0,0,1-1.414,0,1,1,0,0,1,0-1.414l2.474-2.475a1,1,0,0,1,.72-.292,1,1,0,0,1,.72.292l2.475,2.475a1,1,0,0,1,0,1.414,1,1,0,0,1-1.415,0l-.681-.681v5.085a1,1,0,0,1-1,1A1,1,0,0,1-1132-135.415Z" transform="translate(1155 154.415)"/>
  </g>
</svg>
