<svg xmlns="http://www.w3.org/2000/svg" xmlns:xlink="http://www.w3.org/1999/xlink" width="512" height="512" viewBox="0 0 512 512">
  <defs>
    <clipPath id="clip-background">
      <rect width="512" height="512"/>
    </clipPath>
  </defs>
  <g id="background" clip-path="url(#clip-background)">
    <path id="Path_279" data-name="Path 279" d="M-1197.274,73.451h0c-1.082-.336-2.182-.677-3.267-1.015-42.242-13.18-69.189-24.359-69.456-24.471V-72l72.724,145.449Z" transform="translate(1269.999 272)" opacity="0.4"/>
    <path id="Path_280" data-name="Path 280" d="M-836.535,114.858h0l-.048-.007c-4.621-.679-46.69-6.815-100.186-13.144-13.835-1.637-27.413-3.164-40.357-4.541l35.712-71.425,32.2,16.1L-836.535-72Z" transform="translate(1348.535 237.453)" opacity="0.4"/>
    <path id="Union_60" data-name="Union 60" d="M-836.536,52.923h0l-.037,0-.008-17.507c-.772-.249-19.276-6.18-48.658-12.206C-912.388,17.637-954.167,11-999.031,11c-31.1,0-60.036,3.164-86.009,9.407.47-.115.941-.228,1.4-.335-10.594-1.44-20.678-2.816-29.972-4.089-27.726-3.8-56.84-9.229-86.535-16.143-23.218-5.405-46.72-11.695-69.853-18.692,25.31-6.467,49.639-11.635,72.312-15.361,28.044-4.61,53.668-7.025,76.211-7.185v-5.934l-5.652.941h-1.048L-1119.8-72l8.1,24.78,5.6-15.358,6.668,18.28h-.833l-4.5-.672v3.812c21.666.625,47.692,2.248,77.532,4.836,27.228,2.362,57.662,5.526,90.458,9.406,53.455,6.323,95.561,12.465,100.186,13.144l.05.008V52.923Zm-277.076-94.285q3.027.051,6.183.132v-3.74l-4.5.672h-.834l.764-2.095h-.475l-5.652-.941v5.927C-1116.618-41.4-1115.1-41.387-1113.612-41.362Z" transform="translate(1348.535 366.075)" opacity="0.2"/>
    <path id="Path_284" data-name="Path 284" d="M-757.954,120.033H-1270v-.275h512l-.039-92.727.085.011v92.992Zm-502.214-61.767c-6.332,0-9.8-.227-9.832-.23V-72c.255.106,27.247,11.3,69.457,24.471,38.986,12.164,99.339,28.565,165.466,37.623,9.541,1.307,19.625,2.683,29.971,4.088a258.651,258.651,0,0,0-46.07,15.34,595.222,595.222,0,0,1-70.879,26.4A559.912,559.912,0,0,1-1182.8,50.592c-16.036,2.92-31.91,5.046-47.179,6.319C-1243.4,58.031-1253.805,58.266-1260.168,58.266Z" transform="translate(1270 391.964)" opacity="0.3"/>
    <path id="Union_61" data-name="Union 61" d="M-1270,96.243V34.522s95.785,6.412,218.823-48.513c64.148-28.636,141.069-27.415,200.023-19.683v-4.318l-4.96.859h-.92l7.349-23.364,7.349,23.363h-.919l-4.961-.859v4.711c6.161.839,12.115,1.745,17.828,2.693v-5.937l-7.267,1.145H-839l10.768-31.16,10.49,30.357,4.31-10.056,6.926,16.162h-.867l-4.675-.594v3.4c32.814,6.438,54,13.278,54,13.278L-758,96.243ZM-814.819-27.806v-2.864l-4.675.594h-.867l2.274-5.306h-.726l-7.267-1.145v6.667Q-820.263-28.852-814.819-27.806Z" transform="translate(1270 415.477)" opacity="0.4"/>
  </g>
</svg>
