<svg xmlns="http://www.w3.org/2000/svg" xmlns:xlink="http://www.w3.org/1999/xlink" width="256" height="256" viewBox="0 0 256 256">
  <defs>
    <clipPath id="clip-location_unknown">
      <rect width="256" height="256"/>
    </clipPath>
  </defs>
  <g id="location_unknown" clip-path="url(#clip-location_unknown)">
    <path id="Path_695" data-name="Path 695" d="M-1383.295,58v0A24.029,24.029,0,0,1-1407,34a23.931,23.931,0,0,1,.189-3,24.023,24.023,0,0,1,3.771-10.192,24.492,24.492,0,0,1,1.763-2.349c.478-.559.98-1.1,1.49-1.593a23.846,23.846,0,0,1,12.709-6.521,35.646,35.646,0,0,1,8.624-13.805A35.752,35.752,0,0,1-1353-14a35.753,35.753,0,0,1,25.455,10.544A35.764,35.764,0,0,1-1317,22a18.02,18.02,0,0,1,18,18,18.02,18.02,0,0,1-18,18v0ZM-1387-110.4a33.6,33.6,0,0,1,33.6-33.6,33.6,33.6,0,0,1,33.6,33.6c0,25.2-33.6,62.4-33.6,62.4S-1387-85.2-1387-110.4Z" transform="translate(1481 183)" fill="#eee"/>
    <path id="Path_694" data-name="Path 694" d="M-1375.393,82v0A32.039,32.039,0,0,1-1407,50a31.869,31.869,0,0,1,.252-4,32.023,32.023,0,0,1,5.028-13.59,32.615,32.615,0,0,1,2.351-3.132c.637-.745,1.307-1.462,1.987-2.124a31.791,31.791,0,0,1,16.945-8.694,47.527,47.527,0,0,1,11.5-18.407A47.669,47.669,0,0,1-1335-14,47.675,47.675,0,0,1-1301.057.058,47.684,47.684,0,0,1-1287,34a24.026,24.026,0,0,1,24,24,24.027,24.027,0,0,1-24,24v0Zm87.738-39.988a47.471,47.471,0,0,1-13.4,25.93A48.757,48.757,0,0,1-1308.435,74H-1287v0A16.028,16.028,0,0,0-1271,58a16.019,16.019,0,0,0-16-16C-1287.309,42-1287.492,42-1287.654,42.012Zm-94.87-14.8c-.331.108-.687.238-1.123.4l-.047.018-.047.022a.208.208,0,0,0-.05.018A23.9,23.9,0,0,0-1398.994,50a24.026,24.026,0,0,0,23.6,24h40.908a39.756,39.756,0,0,0,27.758-11.732A39.725,39.725,0,0,0-1295,34a40.043,40.043,0,0,0-40-40,40.013,40.013,0,0,0-36.73,24.167,31.913,31.913,0,0,1,20.4,10.328A31.918,31.918,0,0,1-1343,50l-8,0a23.852,23.852,0,0,0-7.038-16.963A23.835,23.835,0,0,0-1375,26,23.88,23.88,0,0,0-1382.524,27.209Zm3.067-8.9c.654-.091,1.3-.161,1.941-.211C-1378.169,18.149-1378.818,18.22-1379.457,18.31ZM-1335.2-16a294.766,294.766,0,0,1-22.4-29A183.324,183.324,0,0,1-1373-72.025c-4.645-10.368-7-19.51-7-27.175a44.515,44.515,0,0,1,3.521-17.438,44.641,44.641,0,0,1,9.6-14.24,44.645,44.645,0,0,1,14.241-9.6A44.516,44.516,0,0,1-1335.2-144a44.508,44.508,0,0,1,17.438,3.521,44.644,44.644,0,0,1,14.241,9.6,44.644,44.644,0,0,1,9.6,14.24A44.515,44.515,0,0,1-1290.4-99.2c0,7.664-2.355,16.807-7,27.175A183.169,183.169,0,0,1-1312.8-45a294.6,294.6,0,0,1-22.4,29h0ZM-1373-98.2c0,14.645,10.278,32.953,18.9,45.732A247.56,247.56,0,0,0-1335.2-28a250.183,250.183,0,0,0,18.9-24.468c8.622-12.779,18.9-31.087,18.9-45.732a37.843,37.843,0,0,0-37.8-37.8A37.843,37.843,0,0,0-1373-98.2Zm25.273,12.928A17.88,17.88,0,0,1-1353-98a17.88,17.88,0,0,1,5.272-12.728A17.878,17.878,0,0,1-1335-116a17.881,17.881,0,0,1,12.728,5.272A17.879,17.879,0,0,1-1317-98a17.879,17.879,0,0,1-5.272,12.728A17.881,17.881,0,0,1-1335-80,17.878,17.878,0,0,1-1347.728-85.272ZM-1345-98a10.011,10.011,0,0,0,10,10,10.011,10.011,0,0,0,10-10,10.011,10.011,0,0,0-10-10A10.011,10.011,0,0,0-1345-98Z" transform="translate(1463 159)" fill="#bdbdbd"/>
  </g>
</svg>
