<svg xmlns="http://www.w3.org/2000/svg" xmlns:xlink="http://www.w3.org/1999/xlink" width="48" height="48" viewBox="0 0 48 48">
  <defs>
    <clipPath id="clip-_232">
      <rect width="48" height="48"/>
    </clipPath>
  </defs>
  <g id="_232" data-name="232" clip-path="url(#clip-_232)">
    <path id="Path_429" data-name="Path 429" d="M-159.481-541.119a1.031,1.031,0,0,1-.4-1.37l.918-1.789a.962.962,0,0,1,1.323-.419,1.033,1.033,0,0,1,.4,1.371l-.919,1.788a.975.975,0,0,1-.865.538A.94.94,0,0,1-159.481-541.119Zm-8,0a1.031,1.031,0,0,1-.4-1.37l.918-1.789a.962.962,0,0,1,1.323-.419,1.033,1.033,0,0,1,.4,1.371l-.919,1.788a.975.975,0,0,1-.865.538A.94.94,0,0,1-167.481-541.119Zm-8,0a1.031,1.031,0,0,1-.4-1.37l.918-1.789a.962.962,0,0,1,1.323-.419,1.033,1.033,0,0,1,.405,1.371l-.919,1.788a.975.975,0,0,1-.865.538A.943.943,0,0,1-175.481-541.119Zm-8,0a1.031,1.031,0,0,1-.4-1.37l.918-1.789a.962.962,0,0,1,1.323-.419,1.033,1.033,0,0,1,.4,1.371l-.919,1.788a.974.974,0,0,1-.865.538A.943.943,0,0,1-183.481-541.119Zm26.476-5.184a1.032,1.032,0,0,1-.4-1.371l1.193-2.327H-154l-1.682,3.279a.976.976,0,0,1-.865.536A.951.951,0,0,1-157.005-546.3Zm-8,0a1.032,1.032,0,0,1-.4-1.371l1.193-2.327H-162l-1.682,3.279a.976.976,0,0,1-.865.536A.951.951,0,0,1-165.005-546.3Zm-8,0a1.032,1.032,0,0,1-.4-1.371l1.193-2.327H-170l-1.682,3.279a.976.976,0,0,1-.865.536A.951.951,0,0,1-173.005-546.3Zm-8,0a1.032,1.032,0,0,1-.4-1.371l1.193-2.327H-178l-1.682,3.279a.976.976,0,0,1-.865.536A.951.951,0,0,1-181.005-546.3Z" transform="translate(197 582)" fill="#03a9f4"/>
    <path id="Subtraction_100" data-name="Subtraction 100" d="M-930-258h-22.1a7.959,7.959,0,0,1-5.587-2.379A7.95,7.95,0,0,1-960-266a8.074,8.074,0,0,1,.063-1,8,8,0,0,1,1.257-3.4,8.239,8.239,0,0,1,.588-.783c.163-.19.33-.368.5-.531a7.95,7.95,0,0,1,4.236-2.174,11.883,11.883,0,0,1,2.875-4.6A11.915,11.915,0,0,1-942-282a11.915,11.915,0,0,1,8.485,3.514A11.918,11.918,0,0,1-930-270a6.008,6.008,0,0,1,6,6,6.007,6.007,0,0,1-6,6Zm-22-14a5.973,5.973,0,0,0-1.882.3c-.08.025-.17.059-.281.1l-.012,0-.012.005-.013,0A5.975,5.975,0,0,0-958-266a6.026,6.026,0,0,0,5.9,6h22.109a3.945,3.945,0,0,0,.7-.064A3.993,3.993,0,0,0-926-264a4,4,0,0,0-4-4c-.068,0-.112,0-.15,0a3.968,3.968,0,0,0-2.245.793,10.021,10.021,0,0,0,.4-2.8,10.011,10.011,0,0,0-10-10,10,10,0,0,0-9.183,6.042,7.973,7.973,0,0,1,5.1,2.582A7.975,7.975,0,0,1-944-266h-2a5.963,5.963,0,0,0-1.76-4.241A5.956,5.956,0,0,0-952-272Z" transform="translate(965 288)"/>
    <path id="Subtraction_101" data-name="Subtraction 101" d="M-189.092,14h0l.826-5.447H-191L-189.1,4h3.1l-1.184,2.361H-185Z" transform="translate(196 28)" fill="#ffc107"/>
  </g>
</svg>
