<svg xmlns="http://www.w3.org/2000/svg" xmlns:xlink="http://www.w3.org/1999/xlink" width="48" height="48" viewBox="0 0 48 48">
  <defs>
    <clipPath id="clip-_504">
      <rect width="48" height="48"/>
    </clipPath>
  </defs>
  <g id="_504" data-name="504" clip-path="url(#clip-_504)">
    <path id="Subtraction_69" data-name="Subtraction 69" d="M30,24H7.9A8,8,0,0,1,1.32,11.6a8.11,8.11,0,0,1,.588-.783c.16-.187.327-.366.5-.531A7.949,7.949,0,0,1,6.641,8.116a12.005,12.005,0,0,1,19.845-4.6A11.921,11.921,0,0,1,30,12a6,6,0,0,1,0,12Zm-11-2.05h0V22H30a4,4,0,0,0,0-8H27.8A10,10,0,0,0,8.818,8.042,8.013,8.013,0,0,1,16,16H14a6,6,0,0,0-7.882-5.7c-.077.025-.161.055-.281.1l-.012,0-.012.005-.013,0A6,6,0,0,0,7.9,22H18.129c.29,0,.582-.02.87-.049Z" transform="translate(6 7)"/>
    <path id="Path_630" data-name="Path 630" d="M-162.509-37.115a1.01,1.01,0,0,1-.383-1.325l3.8-7.56h2.1l-4.256,8.48a.917.917,0,0,1-.817.52A.891.891,0,0,1-162.509-37.115Z" transform="translate(166 79)" fill="#03a9f4"/>
    <path id="Path_631" data-name="Path 631" d="M-162.509-37.115a1.01,1.01,0,0,1-.383-1.325l3.8-7.56h2.1l-4.256,8.48a.917.917,0,0,1-.817.52A.891.891,0,0,1-162.509-37.115Z" transform="translate(172 79)" fill="#03a9f4"/>
    <path id="Path_632" data-name="Path 632" d="M-162.509-37.115a1.01,1.01,0,0,1-.383-1.325l3.8-7.56h2.1l-4.256,8.48a.917.917,0,0,1-.817.52A.891.891,0,0,1-162.509-37.115Z" transform="translate(178 79)" fill="#03a9f4"/>
    <path id="Path_633" data-name="Path 633" d="M-162.509-37.115a1.01,1.01,0,0,1-.383-1.325l3.8-7.56h2.1l-4.256,8.48a.917.917,0,0,1-.817.52A.891.891,0,0,1-162.509-37.115Z" transform="translate(184 79)" fill="#03a9f4"/>
    <path id="Path_634" data-name="Path 634" d="M-162.509-37.115a1.01,1.01,0,0,1-.383-1.325l3.8-7.56h2.1l-4.256,8.48a.917.917,0,0,1-.817.52A.891.891,0,0,1-162.509-37.115Z" transform="translate(190 79)" fill="#03a9f4"/>
    <path id="Path_635" data-name="Path 635" d="M-162.509-37.115a1.01,1.01,0,0,1-.383-1.325l3.8-7.56h2.1l-4.256,8.48a.917.917,0,0,1-.817.52A.891.891,0,0,1-162.509-37.115Z" transform="translate(196 79)" fill="#03a9f4"/>
    <path id="Path_636" data-name="Path 636" d="M-162.509-37.115a1.01,1.01,0,0,1-.383-1.325l3.8-7.56h2.1l-4.256,8.48a.917.917,0,0,1-.817.52A.891.891,0,0,1-162.509-37.115Z" transform="translate(202 79)" fill="#03a9f4"/>
  </g>
</svg>
