<svg xmlns="http://www.w3.org/2000/svg" xmlns:xlink="http://www.w3.org/1999/xlink" width="48" height="48" viewBox="0 0 48 48">
  <defs>
    <clipPath id="clip-_511">
      <rect width="48" height="48"/>
    </clipPath>
  </defs>
  <g id="_511" data-name="511" clip-path="url(#clip-_511)">
    <path id="Subtraction_79" data-name="Subtraction 79" d="M30,24H7.9A8,8,0,0,1,1.32,11.6a8.11,8.11,0,0,1,.588-.783c.16-.187.327-.366.5-.531A7.949,7.949,0,0,1,6.641,8.116a12.005,12.005,0,0,1,19.845-4.6A11.921,11.921,0,0,1,30,12a6,6,0,0,1,0,12Zm-11-2.05h0V22H30a4,4,0,0,0,0-8H27.8A10,10,0,0,0,8.818,8.042,8.013,8.013,0,0,1,16,16H14a6,6,0,0,0-7.882-5.7c-.077.025-.161.055-.281.1l-.012,0-.012.005-.013,0A6,6,0,0,0,7.9,22H18.129c.29,0,.582-.02.87-.049Z" transform="translate(6 6)"/>
    <path id="Path_641" data-name="Path 641" d="M-162.509-37.115a1.01,1.01,0,0,1-.383-1.325l3.8-7.56h2.1l-4.256,8.48a.917.917,0,0,1-.817.52A.891.891,0,0,1-162.509-37.115Zm-8,0a1.01,1.01,0,0,1-.383-1.325l3.8-7.56h2.1l-4.257,8.48a.917.917,0,0,1-.817.52A.891.891,0,0,1-170.51-37.115Zm-8,0a1.01,1.01,0,0,1-.383-1.325l3.8-7.56h2.1l-4.257,8.48a.917.917,0,0,1-.817.52A.894.894,0,0,1-178.51-37.115Z" transform="translate(197 78)" fill="#03a9f4"/>
    <path id="Path_454" data-name="Path 454" d="M-472.074-327.027a.835.835,0,0,1-.581-1.018l.5-1.795-1.815.48a.818.818,0,0,1-1-.582.826.826,0,0,1,.582-1.006l1.792-.469-1.324-1.327a.866.866,0,0,1,0-1.177.868.868,0,0,1,1.2,0l1.3,1.337.468-1.806a.823.823,0,0,1,1-.583.816.816,0,0,1,.582,1.006l-.5,1.8,1.814-.481a.878.878,0,0,1,1.039.583.863.863,0,0,1-.6,1.006l-1.8.469,1.324,1.337a.83.83,0,0,1,0,1.166.826.826,0,0,1-1.164,0l-1.324-1.327-.48,1.818a.829.829,0,0,1-.8.6A.812.812,0,0,1-472.074-327.027Z" transform="translate(484 367)" fill="#03a9f4"/>
  </g>
</svg>
