<svg xmlns="http://www.w3.org/2000/svg" xmlns:xlink="http://www.w3.org/1999/xlink" width="48" height="48" viewBox="0 0 48 48">
  <defs>
    <clipPath id="clip-_601">
      <rect width="48" height="48"/>
    </clipPath>
  </defs>
  <g id="_601" data-name="601" clip-path="url(#clip-_601)">
    <path id="Path_462" data-name="Path 462" d="M-638.075-38.027a.837.837,0,0,1-.582-1.018l.5-1.795-1.814.48a.818.818,0,0,1-1-.583.825.825,0,0,1,.582-1.005l1.792-.469-1.324-1.327a.866.866,0,0,1,0-1.177.866.866,0,0,1,1.2,0l1.3,1.337.468-1.806a.823.823,0,0,1,1-.583.815.815,0,0,1,.581,1.006l-.5,1.795,1.814-.48a.878.878,0,0,1,1.039.583.864.864,0,0,1-.6,1.006l-1.8.468,1.324,1.338a.828.828,0,0,1,0,1.166.825.825,0,0,1-1.164,0l-1.324-1.326-.48,1.817a.827.827,0,0,1-.8.6A.823.823,0,0,1-638.075-38.027Zm-10,0a.837.837,0,0,1-.582-1.018l.5-1.795-1.814.48a.818.818,0,0,1-1-.583.824.824,0,0,1,.582-1.005l1.792-.469-1.324-1.327a.864.864,0,0,1,0-1.177.867.867,0,0,1,1.2,0l1.3,1.337.468-1.806a.823.823,0,0,1,1-.583.815.815,0,0,1,.581,1.006l-.5,1.795,1.815-.48a.878.878,0,0,1,1.039.583.864.864,0,0,1-.606,1.006l-1.8.468,1.324,1.338a.828.828,0,0,1,0,1.166.826.826,0,0,1-1.165,0l-1.323-1.326-.48,1.817a.827.827,0,0,1-.8.6A.822.822,0,0,1-648.075-38.027Zm-10,0a.836.836,0,0,1-.582-1.018l.5-1.795-1.814.48a.818.818,0,0,1-1-.583.824.824,0,0,1,.582-1.005l1.792-.469-1.324-1.327a.864.864,0,0,1,0-1.177.866.866,0,0,1,1.2,0l1.3,1.337.468-1.806a.823.823,0,0,1,1-.583.815.815,0,0,1,.581,1.006l-.5,1.795,1.815-.48a.877.877,0,0,1,1.038.583.863.863,0,0,1-.6,1.006l-1.8.468,1.324,1.338a.828.828,0,0,1,0,1.166.826.826,0,0,1-1.165,0l-1.324-1.326-.479,1.817a.827.827,0,0,1-.8.6A.823.823,0,0,1-658.075-38.027Zm-10,0a.836.836,0,0,1-.582-1.018l.5-1.795-1.814.48a.818.818,0,0,1-1-.583.824.824,0,0,1,.582-1.005l1.792-.469-1.324-1.327a.864.864,0,0,1,0-1.177.866.866,0,0,1,1.2,0l1.3,1.337.468-1.806a.823.823,0,0,1,1-.583.815.815,0,0,1,.582,1.006l-.5,1.795,1.814-.48a.878.878,0,0,1,1.039.583.863.863,0,0,1-.6,1.006l-1.8.468,1.324,1.338a.828.828,0,0,1,0,1.166.826.826,0,0,1-1.165,0l-1.324-1.326-.479,1.817a.827.827,0,0,1-.8.6A.823.823,0,0,1-668.075-38.027Z" transform="translate(676 79)" fill="#03a9f4"/>
    <path id="Subtraction_102" data-name="Subtraction 102" d="M30,24H7.9A8,8,0,0,1,1.32,11.6a8.11,8.11,0,0,1,.588-.783c.16-.187.327-.366.5-.531A7.949,7.949,0,0,1,6.641,8.116a12.005,12.005,0,0,1,19.845-4.6A11.921,11.921,0,0,1,30,12a6,6,0,0,1,0,12Zm-11-2.05h0V22H30a4,4,0,0,0,0-8H27.8A10,10,0,0,0,8.818,8.042,8.013,8.013,0,0,1,16,16H14a6,6,0,0,0-7.882-5.7c-.077.025-.161.055-.281.1l-.012,0-.012.005-.013,0A6,6,0,0,0,7.9,22H18.129c.29,0,.582-.02.87-.049Z" transform="translate(6 7)"/>
  </g>
</svg>
