<svg xmlns="http://www.w3.org/2000/svg" xmlns:xlink="http://www.w3.org/1999/xlink" width="48" height="48" viewBox="0 0 48 48">
  <defs>
    <clipPath id="clip-_711">
      <rect width="48" height="48"/>
    </clipPath>
  </defs>
  <g id="_711" data-name="711" clip-path="url(#clip-_711)">
    <path id="Path_671" data-name="Path 671" d="M-1015.9-47.28c-1.081-.939-3.023-2.262-3.955-2.262-.484,0-1.086.518-1.669,1.021l-.056.047a4.747,4.747,0,0,1-2.959,1.465,4.922,4.922,0,0,1-3.108-1.537l-.07-.058a3.271,3.271,0,0,0-1.6-.938c-.479,0-1.055.5-1.612.984l-.014.013A4.748,4.748,0,0,1-1034-47.009a4.743,4.743,0,0,1-3.058-1.536l-.014-.013-.022-.018c-.582-.5-1.132-.966-1.59-.966-.484,0-1.055.479-1.659.986l-.012.01a4.909,4.909,0,0,1-3.108,1.537,2.72,2.72,0,0,1-.284-.014,4.4,4.4,0,0,0,1.663-3.173,3.686,3.686,0,0,0,2.566-1.691A3.092,3.092,0,0,1-1038.7-52a4.743,4.743,0,0,1,3.058,1.536l.014.013.021.018c.583.5,1.133.966,1.591.966.481,0,1.056-.5,1.612-.984l.018-.016A4.741,4.741,0,0,1-1029.327-52a4.926,4.926,0,0,1,3.108,1.537l.067.055a3.281,3.281,0,0,0,1.6.94c.427,0,1.025-.516,1.552-.971l.052-.044a4.869,4.869,0,0,1,3.08-1.517c1.9,0,4.436,1.969,5.439,2.815a1.285,1.285,0,0,1,.162,1.733,1.126,1.126,0,0,1-.9.451A1.133,1.133,0,0,1-1015.9-47.28Zm0-10c-1.081-.939-3.023-2.262-3.955-2.262-.483,0-1.086.518-1.669,1.02l-.053.045a4.75,4.75,0,0,1-2.962,1.468,4.922,4.922,0,0,1-3.108-1.537l-.07-.058a3.271,3.271,0,0,0-1.6-.938c-.479,0-1.055.5-1.612.984l-.019.016A4.741,4.741,0,0,1-1034-57.009a4.741,4.741,0,0,1-3.054-1.533l-.019-.016-.022-.018c-.582-.5-1.132-.966-1.59-.966-.484,0-1.055.479-1.66.986l-.011.009a7.861,7.861,0,0,1-1.729,1.218c0-.07.006-.145.006-.228a4.313,4.313,0,0,0-.613-2.214,10.006,10.006,0,0,0,.875-.684l.012-.01A4.914,4.914,0,0,1-1038.7-62a4.743,4.743,0,0,1,3.058,1.536l.014.013.021.018c.583.5,1.133.966,1.591.966.481,0,1.056-.5,1.612-.984l.018-.016A4.743,4.743,0,0,1-1029.327-62a4.934,4.934,0,0,1,3.108,1.536l.071.059a3.269,3.269,0,0,0,1.6.938c.425,0,1.024-.516,1.553-.971l.051-.044a4.869,4.869,0,0,1,3.08-1.517c1.9,0,4.436,1.969,5.439,2.815a1.285,1.285,0,0,1,.162,1.733,1.126,1.126,0,0,1-.9.451A1.133,1.133,0,0,1-1015.9-57.28Zm0-10c-1.091-.947-3.027-2.262-3.955-2.262-.475,0-1.056.491-1.669,1.02a4.844,4.844,0,0,1-3.015,1.513,4.922,4.922,0,0,1-3.108-1.537c-.615-.5-1.2-1-1.67-1s-1.032.479-1.612.983a4.767,4.767,0,0,1-3.073,1.55,4.771,4.771,0,0,1-3.073-1.55c-.591-.5-1.147-.983-1.611-.983-.488,0-1.056.479-1.67,1a4.9,4.9,0,0,1-3.108,1.537,4.782,4.782,0,0,1-3.015-1.513c-.6-.528-1.182-1.02-1.669-1.02-.94,0-2.876,1.327-3.955,2.262a1.117,1.117,0,0,1-1.635-.172,1.281,1.281,0,0,1,.163-1.733c.534-.467,3.34-2.815,5.415-2.815a4.922,4.922,0,0,1,3.131,1.562c.556.479,1.136.971,1.553.971.487,0,1.056-.48,1.67-1A4.895,4.895,0,0,1-1038.7-72a4.767,4.767,0,0,1,3.073,1.549c.591.5,1.148.984,1.612.984s1.032-.48,1.612-.984A4.768,4.768,0,0,1-1029.327-72a4.923,4.923,0,0,1,3.108,1.536c.615.5,1.194,1,1.67,1,.417,0,1-.492,1.553-.971A4.955,4.955,0,0,1-1019.865-72c2.075,0,4.87,2.335,5.439,2.815a1.281,1.281,0,0,1,.162,1.733,1.127,1.127,0,0,1-.9.451A1.126,1.126,0,0,1-1015.9-67.28Z" transform="translate(1059 83)"/>
    <path id="Path_672" data-name="Path 672" d="M-1052.3-49.074h-.465v-.012c-.09.008-.181.012-.27.012A2.911,2.911,0,0,1-1056-51.926a2.786,2.786,0,0,1,.849-2,2.553,2.553,0,0,1-.849-1.89,2.646,2.646,0,0,1,2.692-2.592,2.8,2.8,0,0,1,.734.1A4.017,4.017,0,0,1-1048.73-61a3.971,3.971,0,0,1,4.038,3.889c0,.1,0,.2-.013.3a3.136,3.136,0,0,1,2.7,3.07,3.136,3.136,0,0,1-2.7,3.069A3.976,3.976,0,0,1-1048.73-47,4.057,4.057,0,0,1-1052.3-49.074Z" transform="translate(1059 83)"/>
  </g>
</svg>
