<svg xmlns="http://www.w3.org/2000/svg" xmlns:xlink="http://www.w3.org/1999/xlink" width="48" height="48" viewBox="0 0 48 48">
  <defs>
    <clipPath id="clip-_751">
      <rect width="48" height="48"/>
    </clipPath>
  </defs>
  <g id="_751" data-name="751" clip-path="url(#clip-_751)">
    <path id="Subtraction_106" data-name="Subtraction 106" d="M-1166.152-327.272a9.073,9.073,0,0,1-3.276-.608.49.49,0,0,0-.132-.473l-6.193-6.193a4.225,4.225,0,0,0,2.872-1.211h.089a6.628,6.628,0,0,0,6.639,6.061,6.674,6.674,0,0,0,6.666-6.666,6.626,6.626,0,0,0-.328-2.069,4.884,4.884,0,0,0,1.54.25,4.854,4.854,0,0,0,4.849-4.848,4.855,4.855,0,0,0-4.849-4.849,4.8,4.8,0,0,0-2.26.558,6.617,6.617,0,0,0,1.048-3.588,6.674,6.674,0,0,0-6.666-6.667,6.675,6.675,0,0,0-6.667,6.667c0,.22.012.457.037.706a4.2,4.2,0,0,0-3.067-1.311,4.217,4.217,0,0,0-2.967,1.213h-3.193a6.069,6.069,0,0,1,5.555-3.636,6.038,6.038,0,0,1,1.651.228,9.069,9.069,0,0,1,8.652-6.289,9.1,9.1,0,0,1,9.091,9.091c0,.256-.009.492-.028.7a7.282,7.282,0,0,1,4.34,2.446A7.274,7.274,0,0,1-1151-343.03a7.274,7.274,0,0,1-1.744,4.726,7.274,7.274,0,0,1-4.331,2.448A9.089,9.089,0,0,1-1166.152-327.272Zm-12.137-5.308a6.68,6.68,0,0,1-3.5-3.178h-1.734a.5.5,0,0,0-.184-.035.5.5,0,0,0-.185.035h-1.049a1.213,1.213,0,0,1-1.212-1.211,1.214,1.214,0,0,1,1.212-1.212h8.484a1.214,1.214,0,0,1,1.212,1.212,1.213,1.213,0,0,1-1.212,1.211h-2.36a4.217,4.217,0,0,0,2.22,1.147l-1.861,1.861.168.168Zm-4.226-6.814h-7.274a1.213,1.213,0,0,1-1.211-1.212,1.213,1.213,0,0,1,1.211-1.211h7.274a1.213,1.213,0,0,1,1.211,1.211A1.213,1.213,0,0,1-1182.515-339.394Zm4.848-3.636h-7.273a1.214,1.214,0,0,1-1.212-1.213,1.213,1.213,0,0,1,1.212-1.211h7.273a1.213,1.213,0,0,1,1.211,1.211A1.214,1.214,0,0,1-1177.666-343.03Zm-1.212-4.849h-8.485a1.214,1.214,0,0,1-1.212-1.212,1.213,1.213,0,0,1,1.212-1.211h8.485a1.213,1.213,0,0,1,1.212,1.211A1.214,1.214,0,0,1-1178.879-347.879Z" transform="translate(1195 368)"/>
    <path id="Path_689" data-name="Path 689" d="M-1055.5-189a.494.494,0,0,1-.463-.309.493.493,0,0,1,.109-.545l8.793-8.793a.5.5,0,0,1,.354-.147.5.5,0,0,1,.354.147l8.793,8.793a.491.491,0,0,1,.108.545.492.492,0,0,1-.462.309Zm19.086-1.5a.488.488,0,0,0-.147-.354l-4.9-4.9,1.9-1.9a.5.5,0,0,1,.354-.147.5.5,0,0,1,.354.147l6.293,6.293a.491.491,0,0,1,.108.544.494.494,0,0,1-.462.31Z" transform="translate(1058 233)" fill="#cabc91"/>
  </g>
</svg>
