<svg xmlns="http://www.w3.org/2000/svg" xmlns:xlink="http://www.w3.org/1999/xlink" width="48" height="48" viewBox="0 0 48 48">
  <defs>
    <clipPath id="clip-_761">
      <rect width="48" height="48"/>
    </clipPath>
  </defs>
  <g id="_761" data-name="761" clip-path="url(#clip-_761)">
    <path id="Path_176" data-name="Path 176" d="M16.806,27.88H15.757v-.027c-.2.019-.4.027-.607.027a6.65,6.65,0,0,1-5.937-3.637H6.061a1.212,1.212,0,1,1,0-2.424h8.484a1.212,1.212,0,1,1,0,2.424h-2.36a4.238,4.238,0,0,0,5.935,0h.088a6.667,6.667,0,1,0,12.979-2.674,4.849,4.849,0,1,0,1.539-9.447,4.8,4.8,0,0,0-2.259.557A6.667,6.667,0,1,0,18.181,9.091c0,.23.013.468.037.706a4.24,4.24,0,0,0-6.035-.1H8.99A6.067,6.067,0,0,1,16.2,6.289a9.092,9.092,0,0,1,17.742,2.8c0,.251-.009.488-.027.7a7.274,7.274,0,0,1,.013,14.351A9.092,9.092,0,0,1,16.806,27.88ZM1.212,20.607a1.212,1.212,0,1,1,0-2.424H8.485a1.212,1.212,0,1,1,0,2.424ZM6.061,16.97a1.213,1.213,0,1,1,0-2.425h7.272a1.213,1.213,0,0,1,0,2.425ZM3.636,12.121a1.212,1.212,0,1,1,0-2.424h8.485a1.212,1.212,0,1,1,0,2.424Z" transform="translate(4 8)"/>
  </g>
</svg>
