<svg xmlns="http://www.w3.org/2000/svg" xmlns:xlink="http://www.w3.org/1999/xlink" width="48" height="48" viewBox="0 0 48 48">
  <defs>
    <clipPath id="clip-_781">
      <rect width="48" height="48"/>
    </clipPath>
  </defs>
  <g id="_781" data-name="781" clip-path="url(#clip-_781)">
    <path id="weather-tornado" d="M40,7H4A2,2,0,1,1,4,3H40a2,2,0,0,1,0,4m-2,6a2,2,0,0,0-2-2H8a2,2,0,1,0,0,4H36a2,2,0,0,0,2-2m2,8a2,2,0,0,0-2-2H18a2,2,0,1,0,0,4H38a2,2,0,0,0,2-2M30,29a2,2,0,0,0-2-2H16a2,2,0,0,0,0,4H28a2,2,0,0,0,2-2m-6,8a2,2,0,0,0-2-2H18a2,2,0,0,0,0,4h4A2,2,0,0,0,24,37Z" transform="translate(2 3)"/>
  </g>
</svg>
