<svg xmlns="http://www.w3.org/2000/svg" xmlns:xlink="http://www.w3.org/1999/xlink" width="48" height="48" viewBox="0 0 48 48">
  <defs>
    <clipPath id="clip-_800">
      <rect width="48" height="48"/>
    </clipPath>
  </defs>
  <g id="_800" data-name="800" clip-path="url(#clip-_800)">
    <path id="Path_556" data-name="Path 556" d="M-833.887,52.113v-6a1,1,0,0,1,1-1,1,1,0,0,1,1,1v6a1,1,0,0,1-1,1A1,1,0,0,1-833.887,52.113Zm15.142-5.443-4.243-4.243a1,1,0,0,1,0-1.415,1,1,0,0,1,1.414,0l4.243,4.243a1,1,0,0,1,0,1.414,1,1,0,0,1-.708.293A1,1,0,0,1-818.745,46.67Zm-29.7,0a1,1,0,0,1,0-1.414l4.243-4.243a1,1,0,0,1,1.414,0,1,1,0,0,1,0,1.415l-4.243,4.243a1,1,0,0,1-.706.292A1,1,0,0,1-848.444,46.669Zm7.07-7.071a11.921,11.921,0,0,1-3.515-8.485,11.924,11.924,0,0,1,3.515-8.485,11.921,11.921,0,0,1,8.485-3.514,11.923,11.923,0,0,1,8.485,3.514,11.924,11.924,0,0,1,3.514,8.485A11.921,11.921,0,0,1-824.4,39.6a11.92,11.92,0,0,1-8.485,3.515A11.918,11.918,0,0,1-841.373,39.6Zm23.485-7.484a1,1,0,0,1-1-1,1,1,0,0,1,1-1h6a1,1,0,0,1,1,1,1,1,0,0,1-1,1Zm-36,0a1,1,0,0,1-1-1,1,1,0,0,1,1-1h6a1,1,0,0,1,1,1,1,1,0,0,1-1,1Zm30.9-10.9a1,1,0,0,1,0-1.414l4.243-4.244a1,1,0,0,1,1.414,0,1,1,0,0,1,0,1.415l-4.243,4.243a1,1,0,0,1-.707.292A1,1,0,0,1-822.988,21.213Zm-21.213,0-4.243-4.243a1,1,0,0,1,0-1.414,1,1,0,0,1,1.414,0l4.243,4.243a1,1,0,0,1,0,1.414,1,1,0,0,1-.708.293A1,1,0,0,1-844.2,21.214Zm10.314-5.1v-6a1,1,0,0,1,1-1,1,1,0,0,1,1,1v6a1,1,0,0,1-1,1A1,1,0,0,1-833.887,16.113Z" transform="translate(856.887 -7.113)" fill="#ffc107"/>
  </g>
</svg>
