<svg xmlns="http://www.w3.org/2000/svg" xmlns:xlink="http://www.w3.org/1999/xlink" width="48" height="48" viewBox="0 0 48 48">
  <defs>
    <clipPath id="clip-wind">
      <rect width="48" height="48"/>
    </clipPath>
  </defs>
  <g id="wind" clip-path="url(#clip-wind)">
    <path id="Path_233" data-name="Path 233" d="M-1125.365,36a1.509,1.509,0,0,1-.086-.5,1.5,1.5,0,0,1,1.5-1.5c.829,0,1.451,1,1.451,1a2.48,2.48,0,0,0,2,1,2.5,2.5,0,0,0,2.5-2.5,2.5,2.5,0,0,0-2.5-2.5h.5V28.022h0a5.481,5.481,0,0,1,3.549,1.76A5.484,5.484,0,0,1-1115,33.5a5.506,5.506,0,0,1-5.5,5.5A5.4,5.4,0,0,1-1125.365,36Zm-25.136-5a1.5,1.5,0,0,1-1.5-1.5,1.5,1.5,0,0,1,1.5-1.5h30.5v3Zm2-8a1.5,1.5,0,0,1-1.5-1.5,1.5,1.5,0,0,1,1.5-1.5h30a2.5,2.5,0,0,0,2.5-2.5,2.5,2.5,0,0,0-2.5-2.5,2.48,2.48,0,0,0-2,1s-.622,1-1.451,1a1.5,1.5,0,0,1-1.5-1.5,1.509,1.509,0,0,1,.085-.5,5.4,5.4,0,0,1,4.865-3,5.506,5.506,0,0,1,5.5,5.5,5.485,5.485,0,0,1-1.451,3.718,5.482,5.482,0,0,1-3.549,1.76h0V20h0v3Zm-2-8a1.5,1.5,0,0,1-1.5-1.5,1.5,1.5,0,0,1,1.5-1.5c16.666-.01,16.834,0,17,0a4.505,4.505,0,0,0,4.5-4.5,4.505,4.505,0,0,0-4.5-4.5,4.479,4.479,0,0,0-2.519.772,2.568,2.568,0,0,1-1.481.728A1.5,1.5,0,0,1-1139,3c0-.749,1.006-1.5,1.006-1.5A7.55,7.55,0,0,1-1133.5,0a7.508,7.508,0,0,1,7.5,7.5,7.509,7.509,0,0,1-7.5,7.5Z" transform="translate(1156 5)"/>
  </g>
</svg>
