<svg xmlns="http://www.w3.org/2000/svg" xmlns:xlink="http://www.w3.org/1999/xlink" width="48" height="48" viewBox="0 0 48 48">
  <defs>
    <clipPath id="clip-_0">
      <rect width="48" height="48"/>
    </clipPath>
  </defs>
  <g id="_0" data-name="0" clip-path="url(#clip-_0)">
    <path id="Path_498" data-name="Path 498" d="M-952.1,24h0a8.01,8.01,0,0,1-7.9-8,7.973,7.973,0,0,1,.063-1,8,8,0,0,1,1.257-3.4,8.113,8.113,0,0,1,.588-.783c.159-.186.327-.365.5-.531a7.948,7.948,0,0,1,4.236-2.174,11.882,11.882,0,0,1,2.875-4.6A11.917,11.917,0,0,1-942,0a11.919,11.919,0,0,1,8.485,3.515A11.921,11.921,0,0,1-930,12a6.007,6.007,0,0,1,6,6,6.007,6.007,0,0,1-6,6h-22.1Zm22.1-2h0a4.007,4.007,0,0,0,4-4,4,4,0,0,0-4-4c-.077,0-.123,0-.164,0a11.868,11.868,0,0,1-3.351,6.483A12.208,12.208,0,0,1-935.359,22Zm-23.882-11.7c-.083.027-.172.059-.281.1l-.012,0-.012.005-.013,0A5.975,5.975,0,0,0-958,16a6.006,6.006,0,0,0,5.9,6h10.227a9.94,9.94,0,0,0,6.94-2.933A9.932,9.932,0,0,0-932,12,10.011,10.011,0,0,0-942,2a10,10,0,0,0-9.183,6.042,7.978,7.978,0,0,1,5.1,2.582A7.979,7.979,0,0,1-944,16h-2a5.963,5.963,0,0,0-1.76-4.241A5.959,5.959,0,0,0-952,10,5.97,5.97,0,0,0-953.881,10.3Zm.767-2.225c.164-.023.326-.04.485-.053C-952.792,8.037-952.955,8.055-953.114,8.078Z" transform="translate(966 12)" fill="#fff"/>
  </g>
</svg>
