<svg xmlns="http://www.w3.org/2000/svg" xmlns:xlink="http://www.w3.org/1999/xlink" width="48" height="48" viewBox="0 0 48 48">
  <defs>
    <clipPath id="clip-_314">
      <rect width="48" height="48"/>
    </clipPath>
  </defs>
  <g id="_314" data-name="314" clip-path="url(#clip-_314)">
    <path id="Path_444" data-name="Path 444" d="M-258.481-462.118a1.031,1.031,0,0,1-.4-1.37l.918-1.789a.963.963,0,0,1,1.323-.42,1.033,1.033,0,0,1,.4,1.371l-.919,1.789a.974.974,0,0,1-.865.538A.95.95,0,0,1-258.481-462.118Zm-8.027,0a1.01,1.01,0,0,1-.383-1.325l3.8-7.56h2.1l-4.257,8.48a.913.913,0,0,1-.816.52A.891.891,0,0,1-266.508-462.115Zm-7.973,0a1.032,1.032,0,0,1-.4-1.37l.919-1.789a.962.962,0,0,1,1.322-.42,1.032,1.032,0,0,1,.4,1.371l-.918,1.789a.976.976,0,0,1-.865.538A.954.954,0,0,1-274.481-462.118Zm-8.027,0a1.011,1.011,0,0,1-.384-1.325l3.8-7.56h2.1l-4.257,8.48a.916.916,0,0,1-.817.52A.891.891,0,0,1-282.508-462.115ZM-256-467.3a1.03,1.03,0,0,1-.4-1.37l1.193-2.326H-253l-1.682,3.278a.976.976,0,0,1-.865.536A.936.936,0,0,1-256-467.3Zm-16,0a1.031,1.031,0,0,1-.4-1.37l1.193-2.326H-269l-1.682,3.278a.977.977,0,0,1-.865.536A.945.945,0,0,1-272.005-467.3Z" transform="translate(292 507)" fill="#03a9f4"/>
    <path id="Path_653" data-name="Path 653" d="M-955.869,16.571h0A8.973,8.973,0,0,1-960,9a9.01,9.01,0,0,1,9-9,8.927,8.927,0,0,1,5.353,1.764,8.957,8.957,0,0,1,3.218,4.481,11.92,11.92,0,0,0-6.054,3.27,11.881,11.881,0,0,0-2.875,4.6,7.948,7.948,0,0,0-4.236,2.174c-.091.088-.183.183-.273.28Z" transform="translate(963 3)" fill="#ffc107"/>
    <path id="Subtraction_84" data-name="Subtraction 84" d="M-930-258h-22.1a7.959,7.959,0,0,1-5.587-2.379A7.95,7.95,0,0,1-960-266a8.074,8.074,0,0,1,.063-1,8,8,0,0,1,1.257-3.4,8.239,8.239,0,0,1,.588-.783c.163-.19.33-.368.5-.531a7.95,7.95,0,0,1,4.236-2.174,11.883,11.883,0,0,1,2.875-4.6A11.915,11.915,0,0,1-942-282a11.915,11.915,0,0,1,8.485,3.514A11.918,11.918,0,0,1-930-270a6.008,6.008,0,0,1,6,6,6.007,6.007,0,0,1-6,6Zm-22-14a5.973,5.973,0,0,0-1.882.3c-.08.025-.17.059-.281.1l-.012,0-.012.005-.013,0A5.975,5.975,0,0,0-958-266a6.026,6.026,0,0,0,5.9,6h22.109a3.945,3.945,0,0,0,.7-.064A3.993,3.993,0,0,0-926-264a4,4,0,0,0-4-4c-.068,0-.112,0-.15,0a3.968,3.968,0,0,0-2.245.793,10.021,10.021,0,0,0,.4-2.8,10.011,10.011,0,0,0-10-10,10,10,0,0,0-9.183,6.042,7.973,7.973,0,0,1,5.1,2.582A7.975,7.975,0,0,1-944-266h-2a5.963,5.963,0,0,0-1.76-4.241A5.956,5.956,0,0,0-952-272Z" transform="translate(966 292)"/>
  </g>
</svg>
