<svg xmlns="http://www.w3.org/2000/svg" xmlns:xlink="http://www.w3.org/1999/xlink" width="48" height="48" viewBox="0 0 48 48">
  <defs>
    <clipPath id="clip-_531">
      <rect width="48" height="48"/>
    </clipPath>
  </defs>
  <g id="_531" data-name="531" clip-path="url(#clip-_531)">
    <path id="Path_500" data-name="Path 500" d="M-955.869,16.571h0A8.973,8.973,0,0,1-960,9a9.01,9.01,0,0,1,9-9,8.927,8.927,0,0,1,5.353,1.764,8.957,8.957,0,0,1,3.218,4.481,11.92,11.92,0,0,0-6.054,3.27,11.881,11.881,0,0,0-2.875,4.6,7.948,7.948,0,0,0-4.236,2.174c-.091.088-.183.183-.273.28Z" transform="translate(963 3)" fill="#ffc107"/>
    <path id="Subtraction_72" data-name="Subtraction 72" d="M-930-258h-22.1a7.959,7.959,0,0,1-5.587-2.379A7.95,7.95,0,0,1-960-266a8.074,8.074,0,0,1,.063-1,8,8,0,0,1,1.257-3.4,8.239,8.239,0,0,1,.588-.783c.163-.19.33-.368.5-.531a7.95,7.95,0,0,1,4.236-2.174,11.883,11.883,0,0,1,2.875-4.6A11.915,11.915,0,0,1-942-282a11.915,11.915,0,0,1,8.485,3.514A11.918,11.918,0,0,1-930-270a6.008,6.008,0,0,1,6,6,6.007,6.007,0,0,1-6,6Zm-22-14a5.973,5.973,0,0,0-1.882.3c-.08.025-.17.059-.281.1l-.012,0-.012.005-.013,0A5.975,5.975,0,0,0-958-266a6.026,6.026,0,0,0,5.9,6h22.109a3.945,3.945,0,0,0,.7-.064A3.993,3.993,0,0,0-926-264a4,4,0,0,0-4-4c-.068,0-.112,0-.15,0a3.968,3.968,0,0,0-2.245.793,10.021,10.021,0,0,0,.4-2.8,10.011,10.011,0,0,0-10-10,10,10,0,0,0-9.183,6.042,7.973,7.973,0,0,1,5.1,2.582A7.975,7.975,0,0,1-944-266h-2a5.963,5.963,0,0,0-1.76-4.241A5.956,5.956,0,0,0-952-272Z" transform="translate(966 292)"/>
    <path id="Union_157" data-name="Union 157" d="M-455.508-495.115a1.01,1.01,0,0,1-.383-1.325l3.8-7.56h2.1l-4.256,8.48a.917.917,0,0,1-.817.52A.891.891,0,0,1-455.508-495.115Zm-8,0a1.01,1.01,0,0,1-.383-1.325l3.8-7.56h2.1l-4.256,8.48a.917.917,0,0,1-.817.52A.891.891,0,0,1-463.508-495.115Zm-8,0a1.01,1.01,0,0,1-.383-1.325l3.8-7.56h2.1l-4.257,8.48a.917.917,0,0,1-.817.52A.891.891,0,0,1-471.508-495.115Zm-8,0a1.01,1.01,0,0,1-.383-1.325l3.8-7.56h2.1l-4.257,8.48a.917.917,0,0,1-.817.52A.894.894,0,0,1-479.508-495.115Z" transform="translate(489 540)" fill="#03a9f4"/>
  </g>
</svg>
