<svg xmlns="http://www.w3.org/2000/svg" xmlns:xlink="http://www.w3.org/1999/xlink" width="48" height="48" viewBox="0 0 48 48">
  <defs>
    <clipPath id="clip-_611">
      <rect width="48" height="48"/>
    </clipPath>
  </defs>
  <g id="_611" data-name="611" clip-path="url(#clip-_611)">
    <path id="Path_464" data-name="Path 464" d="M-641.508-181.115a1.01,1.01,0,0,1-.383-1.325l3.8-7.56h2.1l-4.257,8.48a.917.917,0,0,1-.817.52A.891.891,0,0,1-641.508-181.115Zm-8,0a1.01,1.01,0,0,1-.383-1.325l3.8-7.56h2.1l-4.257,8.48a.917.917,0,0,1-.817.52A.894.894,0,0,1-649.508-181.115Zm-8,0a1.01,1.01,0,0,1-.383-1.325l3.8-7.56h2.1l-4.257,8.48a.917.917,0,0,1-.817.52A.894.894,0,0,1-657.509-181.115Zm-6.565-1.912a.836.836,0,0,1-.582-1.018l.5-1.795-1.814.48a.817.817,0,0,1-1-.582.825.825,0,0,1,.582-1.006l1.792-.469-1.324-1.327a.864.864,0,0,1,0-1.177.866.866,0,0,1,1.2,0l1.3,1.337.468-1.806a.823.823,0,0,1,1-.583.815.815,0,0,1,.581,1.006l-.5,1.8,1.815-.481a.877.877,0,0,1,1.038.583.862.862,0,0,1-.6,1.006l-1.8.469,1.324,1.337a.828.828,0,0,1,0,1.166.826.826,0,0,1-1.165,0l-1.324-1.326-.479,1.818a.828.828,0,0,1-.8.6A.822.822,0,0,1-664.074-183.027Z" transform="translate(676 222)" fill="#03a9f4"/>
    <path id="Subtraction_102" data-name="Subtraction 102" d="M30,24H7.9A8,8,0,0,1,1.32,11.6a8.11,8.11,0,0,1,.588-.783c.16-.187.327-.366.5-.531A7.949,7.949,0,0,1,6.641,8.116a12.005,12.005,0,0,1,19.845-4.6A11.921,11.921,0,0,1,30,12a6,6,0,0,1,0,12Zm-11-2.05h0V22H30a4,4,0,0,0,0-8H27.8A10,10,0,0,0,8.818,8.042,8.013,8.013,0,0,1,16,16H14a6,6,0,0,0-7.882-5.7c-.077.025-.161.055-.281.1l-.012,0-.012.005-.013,0A6,6,0,0,0,7.9,22H18.129c.29,0,.582-.02.87-.049Z" transform="translate(6 6)"/>
  </g>
</svg>
