<svg xmlns="http://www.w3.org/2000/svg" xmlns:xlink="http://www.w3.org/1999/xlink" width="48" height="48" viewBox="0 0 48 48">
  <defs>
    <clipPath id="clip-_701">
      <rect width="48" height="48"/>
    </clipPath>
  </defs>
  <g id="_701" data-name="701" clip-path="url(#clip-_701)">
    <path id="Path_225" data-name="Path 225" d="M-1015.9,24.72c-1.082-.94-3.024-2.262-3.955-2.262-.484,0-1.086.518-1.669,1.021l-.056.047a4.744,4.744,0,0,1-2.959,1.465,4.926,4.926,0,0,1-3.108-1.537l-.07-.058a3.271,3.271,0,0,0-1.6-.938c-.479,0-1.055.5-1.612.984l-.014.013A4.743,4.743,0,0,1-1034,24.991a4.743,4.743,0,0,1-3.058-1.536l-.014-.013-.022-.019c-.582-.5-1.132-.965-1.59-.965-.484,0-1.055.479-1.66.986l-.011.009a4.909,4.909,0,0,1-3.108,1.537,4.051,4.051,0,0,1-2.51-1.089,5.978,5.978,0,0,0,1.425-1.938,2.149,2.149,0,0,0,1.074.568c.484,0,1.053-.478,1.656-.984l.014-.012A4.909,4.909,0,0,1-1038.7,20a4.743,4.743,0,0,1,3.058,1.536l.014.013.021.018c.583.5,1.133.966,1.591.966.481,0,1.056-.5,1.612-.984l.018-.015A4.74,4.74,0,0,1-1029.326,20a4.933,4.933,0,0,1,3.108,1.537l.064.053a3.294,3.294,0,0,0,1.606.942c.427,0,1.025-.516,1.553-.971l.052-.044A4.867,4.867,0,0,1-1019.865,20c1.9,0,4.437,1.968,5.439,2.815a1.285,1.285,0,0,1,.162,1.733,1.124,1.124,0,0,1-.9.451A1.133,1.133,0,0,1-1015.9,24.72Zm0-10c-1.081-.94-3.023-2.262-3.955-2.262-.484,0-1.086.518-1.669,1.021l-.056.047a4.744,4.744,0,0,1-2.959,1.465,4.926,4.926,0,0,1-3.108-1.537l-.07-.058a3.271,3.271,0,0,0-1.6-.938c-.479,0-1.055.5-1.612.984l-.014.013A4.743,4.743,0,0,1-1034,14.991a4.743,4.743,0,0,1-3.058-1.536l-.014-.013-.022-.019c-.583-.5-1.132-.965-1.59-.965-.484,0-1.055.479-1.66.986l-.011.009a4.909,4.909,0,0,1-3.108,1.537,4.76,4.76,0,0,1-3.005-1.5c-.072-.107-.145-.213-.217-.319-.941-1.377-1.863-2.506-2.329-3.056a3.608,3.608,0,0,1,.855-.113,4.968,4.968,0,0,1,3.131,1.562c.527.455,1.126.971,1.553.971.484,0,1.053-.478,1.656-.984l.014-.012A4.909,4.909,0,0,1-1038.7,10a4.743,4.743,0,0,1,3.058,1.536l.014.013.022.018c.582.5,1.132.966,1.59.966.481,0,1.056-.5,1.612-.984l.018-.015A4.74,4.74,0,0,1-1029.326,10a4.933,4.933,0,0,1,3.108,1.537l.064.053a3.294,3.294,0,0,0,1.606.942c.427,0,1.025-.516,1.553-.971l.052-.044A4.867,4.867,0,0,1-1019.865,10c1.9,0,4.437,1.968,5.439,2.815a1.285,1.285,0,0,1,.162,1.733,1.124,1.124,0,0,1-.9.451A1.133,1.133,0,0,1-1015.9,14.72Zm0-10c-1.09-.947-3.027-2.262-3.955-2.262-.475,0-1.055.491-1.669,1.02a4.844,4.844,0,0,1-3.015,1.513,4.924,4.924,0,0,1-3.108-1.537c-.615-.5-1.194-1-1.67-1s-1.031.479-1.612.983A4.767,4.767,0,0,1-1034,4.991a4.767,4.767,0,0,1-3.073-1.55c-.591-.5-1.148-.983-1.612-.983-.487,0-1.056.479-1.67,1a4.893,4.893,0,0,1-3.108,1.537,4.782,4.782,0,0,1-3.015-1.513c-.6-.528-1.182-1.02-1.669-1.02-.94,0-2.875,1.328-3.955,2.262a1.115,1.115,0,0,1-1.634-.172,1.281,1.281,0,0,1,.162-1.733c.534-.467,3.34-2.815,5.415-2.815a4.922,4.922,0,0,1,3.131,1.562c.556.479,1.137.971,1.553.971.488,0,1.056-.48,1.67-1A4.895,4.895,0,0,1-1038.7,0a4.765,4.765,0,0,1,3.073,1.549c.591.5,1.148.984,1.612.984s1.032-.48,1.612-.984A4.768,4.768,0,0,1-1029.326,0a4.925,4.925,0,0,1,3.108,1.536c.614.5,1.194,1,1.67,1,.418,0,1-.492,1.553-.971A4.955,4.955,0,0,1-1019.865,0c2.076,0,4.871,2.336,5.439,2.815a1.281,1.281,0,0,1,.162,1.733,1.125,1.125,0,0,1-.9.451A1.127,1.127,0,0,1-1015.9,4.72Z" transform="translate(1059 12)"/>
    <path id="Path_670" data-name="Path 670" d="M-1056,19.713c0-1.8,1.162-3.676,2.237-5.238a31.063,31.063,0,0,1,2.137-2.775l.625-.7.625.7a31.266,31.266,0,0,1,2.138,2.775c1.075,1.562,2.237,3.438,2.237,5.238a5,5,0,0,1-5,5A5,5,0,0,1-1056,19.713Z" transform="translate(1059 12)" fill="#03a9f4"/>
  </g>
</svg>
