<svg xmlns="http://www.w3.org/2000/svg" xmlns:xlink="http://www.w3.org/1999/xlink" width="48" height="48" viewBox="0 0 48 48">
  <defs>
    <clipPath id="clip-_741">
      <rect width="48" height="48"/>
    </clipPath>
  </defs>
  <g id="_741" data-name="741" clip-path="url(#clip-_741)">
    <path id="Path_678" data-name="Path 678" d="M-1015.9-263.279c-1.082-.94-3.024-2.263-3.955-2.263-.482,0-1.085.518-1.669,1.02l-.053.045a4.747,4.747,0,0,1-2.962,1.468,4.923,4.923,0,0,1-3.108-1.536l-.075-.061a3.261,3.261,0,0,0-1.595-.935c-.481,0-1.056.5-1.612.984l-.016.013a4.746,4.746,0,0,1-3.057,1.535,4.738,4.738,0,0,1-3.055-1.534l-.018-.015-.022-.019a4.921,4.921,0,0,0-1.3-.911A3.008,3.008,0,0,0-1041-267h-.153a4.043,4.043,0,0,1,2.457-1,4.741,4.741,0,0,1,3.056,1.534l.017.014.021.017c.582.5,1.132.966,1.59.966.482,0,1.056-.5,1.612-.983l.016-.014a4.745,4.745,0,0,1,3.057-1.534,4.93,4.93,0,0,1,3.108,1.535l.07.059a3.273,3.273,0,0,0,1.6.938c.427,0,1.025-.517,1.554-.971l.046-.04a4.876,4.876,0,0,1,3.084-1.521c1.9,0,4.436,1.968,5.439,2.815a1.285,1.285,0,0,1,.163,1.733,1.129,1.129,0,0,1-.9.451A1.133,1.133,0,0,1-1015.9-263.279Zm0-10c-1.09-.947-3.027-2.262-3.955-2.262-.475,0-1.055.491-1.669,1.021a4.847,4.847,0,0,1-3.015,1.512,4.924,4.924,0,0,1-3.108-1.537c-.615-.5-1.194-1-1.67-1s-1.031.48-1.612.984a4.766,4.766,0,0,1-3.073,1.549,4.77,4.77,0,0,1-3.073-1.549c-.591-.5-1.148-.984-1.612-.984-.487,0-1.056.48-1.67,1a4.893,4.893,0,0,1-3.108,1.537,4.785,4.785,0,0,1-3.015-1.512c-.6-.529-1.182-1.021-1.669-1.021-.94,0-2.875,1.328-3.955,2.262a1.115,1.115,0,0,1-1.634-.172,1.281,1.281,0,0,1,.162-1.733c.534-.467,3.34-2.815,5.415-2.815a4.922,4.922,0,0,1,3.131,1.561c.556.48,1.137.971,1.553.971.488,0,1.056-.48,1.67-1A4.9,4.9,0,0,1-1038.7-278a4.765,4.765,0,0,1,3.073,1.549c.591.5,1.148.984,1.612.984s1.032-.48,1.612-.984a4.768,4.768,0,0,1,3.073-1.549,4.929,4.929,0,0,1,3.108,1.536c.614.5,1.194,1,1.67,1,.418,0,1-.491,1.553-.971a4.955,4.955,0,0,1,3.131-1.561c2.076,0,4.871,2.335,5.439,2.815a1.281,1.281,0,0,1,.162,1.733,1.125,1.125,0,0,1-.9.451A1.127,1.127,0,0,1-1015.9-273.28Zm0-10c-1.09-.947-3.027-2.262-3.955-2.262-.475,0-1.055.491-1.669,1.02a4.844,4.844,0,0,1-3.015,1.513,4.924,4.924,0,0,1-3.108-1.537c-.615-.5-1.194-1-1.67-1s-1.031.479-1.612.983a4.767,4.767,0,0,1-3.073,1.55,4.767,4.767,0,0,1-3.073-1.55c-.591-.5-1.148-.983-1.612-.983-.487,0-1.056.479-1.67,1a4.893,4.893,0,0,1-3.108,1.537,4.782,4.782,0,0,1-3.015-1.513c-.6-.528-1.182-1.02-1.669-1.02-.94,0-2.875,1.327-3.955,2.262a1.115,1.115,0,0,1-1.634-.172,1.281,1.281,0,0,1,.162-1.733c.534-.467,3.34-2.815,5.415-2.815a4.922,4.922,0,0,1,3.131,1.561c.556.479,1.137.971,1.553.971.488,0,1.056-.48,1.67-1A4.895,4.895,0,0,1-1038.7-288a4.765,4.765,0,0,1,3.073,1.549c.591.5,1.148.984,1.612.984s1.032-.48,1.612-.984a4.768,4.768,0,0,1,3.073-1.549,4.925,4.925,0,0,1,3.108,1.536c.614.5,1.194,1,1.67,1,.418,0,1-.492,1.553-.971a4.955,4.955,0,0,1,3.131-1.561c2.076,0,4.871,2.335,5.439,2.815a1.281,1.281,0,0,1,.162,1.733,1.125,1.125,0,0,1-.9.451A1.127,1.127,0,0,1-1015.9-283.28Z" transform="translate(1058 299)"/>
    <path id="Path_677" data-name="Path 677" d="M-1052.666-261a3.337,3.337,0,0,1-3.334-3.334,3.336,3.336,0,0,1,3.334-3.333c.1,0,.192,0,.28.012a5.007,5.007,0,0,1,4.72-3.345,5.006,5.006,0,0,1,5,5h.833a2.5,2.5,0,0,1,2.5,2.5,2.5,2.5,0,0,1-2.5,2.5Z" transform="translate(1058 299)"/>
  </g>
</svg>
