<svg xmlns="http://www.w3.org/2000/svg" xmlns:xlink="http://www.w3.org/1999/xlink" width="48" height="48" viewBox="0 0 48 48">
  <defs>
    <clipPath id="clip-humidity">
      <rect width="48" height="48"/>
    </clipPath>
  </defs>
  <g id="humidity" clip-path="url(#clip-humidity)">
    <path id="Subtraction_32" data-name="Subtraction 32" d="M-1141-330a10.958,10.958,0,0,1-7.777-3.2,10.836,10.836,0,0,1-3.222-7.734c0-3.821,2.366-7.766,4.923-11.46a67.9,67.9,0,0,1,4.7-6.07L-1141-360l1.376,1.532a69.666,69.666,0,0,1,4.7,6.07c2.556,3.7,4.921,7.643,4.921,11.46a10.835,10.835,0,0,1-3.221,7.734A10.961,10.961,0,0,1-1141-330Zm0-27-1.125,1.254a55.753,55.753,0,0,0-3.847,4.967c-2.092,3.021-4.027,6.249-4.027,9.376a8.984,8.984,0,0,0,9,8.949,8.985,8.985,0,0,0,9-8.949c0-3.123-1.936-6.352-4.028-9.376a56.074,56.074,0,0,0-3.847-4.967L-1141-357Z" transform="translate(1165 369)"/>
  </g>
</svg>
