<svg xmlns="http://www.w3.org/2000/svg" xmlns:xlink="http://www.w3.org/1999/xlink" width="24" height="24" viewBox="0 0 24 24">
  <defs>
    <clipPath id="clip-menu">
      <rect width="24" height="24"/>
    </clipPath>
  </defs>
  <g id="menu" clip-path="url(#clip-menu)">
    <path id="Union_82" data-name="Union 82" d="M-1150.666-488a1.333,1.333,0,0,1-1.334-1.334,1.333,1.333,0,0,1,1.334-1.333h16.333a1.333,1.333,0,0,1,1.333,1.333,1.333,1.333,0,0,1-1.333,1.334Zm0-6.667A1.333,1.333,0,0,1-1152-496a1.334,1.334,0,0,1,1.334-1.334h16a1.334,1.334,0,0,1,1.334,1.334,1.334,1.334,0,0,1-1.334,1.333Zm0-6.666a1.333,1.333,0,0,1-1.334-1.333,1.333,1.333,0,0,1,1.334-1.334h21.333a1.334,1.334,0,0,1,1.334,1.334,1.334,1.334,0,0,1-1.334,1.333Z" transform="translate(1152 508)"/>
  </g>
</svg>
