<svg xmlns="http://www.w3.org/2000/svg" xmlns:xlink="http://www.w3.org/1999/xlink" width="48" height="48" viewBox="0 0 48 48">
  <defs>
    <clipPath id="clip-pressure">
      <rect width="48" height="48"/>
    </clipPath>
  </defs>
  <g id="pressure" clip-path="url(#clip-pressure)">
    <path id="Path_314" data-name="Path 314" d="M-1150-403v-2h9v-3.041a11.914,11.914,0,0,1-7.485-3.474A11.924,11.924,0,0,1-1152-420a11.924,11.924,0,0,1,3.515-8.485A11.924,11.924,0,0,1-1140-432a11.924,11.924,0,0,1,8.486,3.514A11.924,11.924,0,0,1-1128-420a11.924,11.924,0,0,1-3.515,8.486,11.913,11.913,0,0,1-7.486,3.474V-405h9v2Zm0-17a10.011,10.011,0,0,0,10,10,10.011,10.011,0,0,0,10-10,10.011,10.011,0,0,0-10-10A10.011,10.011,0,0,0-1150-420Zm8,0a2,2,0,0,1,2-2,2,2,0,0,1,.582.086l4.081-3.453a.5.5,0,0,1,.7.7l-3.453,4.081A2,2,0,0,1-1138-420a2,2,0,0,1-2,2A2,2,0,0,1-1142-420Z" transform="translate(1164 442)"/>
  </g>
</svg>
