<svg xmlns="http://www.w3.org/2000/svg" xmlns:xlink="http://www.w3.org/1999/xlink" width="48" height="48" viewBox="0 0 48 48">
  <defs>
    <clipPath id="clip-sunset">
      <rect width="48" height="48"/>
    </clipPath>
  </defs>
  <g id="sunset" clip-path="url(#clip-sunset)">
    <path id="Path_297" data-name="Path 297" d="M-1146-186.414a1,1,0,0,1-1-1,1,1,0,0,1,1-1h30a1,1,0,0,1,1,1,1,1,0,0,1-1,1Zm-5-4a1,1,0,0,1-1-1,1,1,0,0,1,1-1h8a11.924,11.924,0,0,1,3.515-8.485,11.924,11.924,0,0,1,8.485-3.514,11.926,11.926,0,0,1,8.486,3.514,11.923,11.923,0,0,1,3.515,8.484h-2a9.934,9.934,0,0,0-2.932-7.068,9.932,9.932,0,0,0-7.068-2.932,10.011,10.011,0,0,0-10,10h30a1,1,0,0,1,1,1,1,1,0,0,1-1,1Zm33.174-3.627a1,1,0,0,1,.811-1.158l5.909-1.041a1,1,0,0,1,1.159.811,1,1,0,0,1-.812,1.158l-5.909,1.042a1.006,1.006,0,0,1-.174.015A1,1,0,0,1-1117.826-194.041Zm-27.28.812-5.909-1.042a1,1,0,0,1-.811-1.158,1,1,0,0,1,1.158-.811l5.908,1.041a1,1,0,0,1,.812,1.158,1,1,0,0,1-.984.827A1,1,0,0,1-1145.106-193.229Zm22.872-8.414a1,1,0,0,1-.123-1.409l3.857-4.6a1,1,0,0,1,1.409-.122,1,1,0,0,1,.123,1.408l-3.857,4.6a1,1,0,0,1-.767.357A1,1,0,0,1-1122.234-201.643Zm-19.266-.123-3.857-4.6a1,1,0,0,1,.123-1.409,1,1,0,0,1,1.409.123l3.856,4.6a1,1,0,0,1-.122,1.409,1,1,0,0,1-.642.234A1,1,0,0,1-1141.5-201.767Zm10.4-4.648a.994.994,0,0,1-.72-.292l-2.474-2.475a1,1,0,0,1,0-1.414,1,1,0,0,1,1.414,0l.878.878V-215a1,1,0,0,1,1-1,1,1,0,0,1,1,1v5.085l.681-.681a1,1,0,0,1,1.415,0,1,1,0,0,1,0,1.414l-2.475,2.475a1,1,0,0,1-.706.293Z" transform="translate(1155 225.415)"/>
  </g>
</svg>
